
<svg version="1.0" xmlns="http://www.w3.org/2000/svg"
 width="512.000000pt" height="512.000000pt" viewBox="0 0 512.000000 512.000000"
 preserveAspectRatio="xMidYMid meet">

<g transform="translate(0.000000,512.000000) scale(0.100000,-0.100000)"
fill="#000000" stroke="none">
<path d="M3105 4789 c-132 -111 -334 -280 -449 -377 l-208 -174 63 -29 c35
-16 69 -29 75 -29 6 0 31 17 55 39 24 21 116 98 205 172 88 74 216 181 285
239 68 58 132 111 142 119 16 13 17 -73 17 -1643 l0 -1656 -290 0 -290 0 0
1233 c0 677 -4 1237 -8 1242 -4 6 -32 20 -62 32 -82 31 -607 240 -670 268 -30
13 -79 32 -108 43 l-53 20 -127 -106 c-70 -59 -181 -152 -246 -207 -385 -325
-545 -460 -640 -538 l-106 -89 2 -1016 3 -1017 59 -3 c41 -2 62 1 67 10 5 7 9
452 9 988 l0 975 120 100 c171 143 471 395 643 541 81 69 152 122 157 119 7
-4 10 -493 10 -1371 l0 -1365 63 3 62 3 5 1387 c3 762 8 1390 13 1394 4 4 26
-2 50 -13 23 -12 53 -24 67 -28 14 -5 75 -28 135 -53 61 -24 144 -58 185 -74
41 -16 89 -35 105 -42 17 -7 46 -19 65 -26 19 -7 41 -18 47 -23 10 -7 13 -277
15 -1266 l3 -1256 428 -3 427 -2 0 1751 0 1750 23 -6 c12 -4 42 -16 67 -27 25
-10 108 -44 185 -74 77 -30 158 -63 180 -73 22 -10 51 -22 65 -26 14 -4 39
-13 55 -20 17 -8 47 -21 67 -29 l38 -15 2 -1613 3 -1613 65 0 65 0 3 1658 2
1657 -54 25 c-29 13 -82 35 -117 49 -35 13 -94 36 -131 50 -37 14 -75 30 -85
35 -18 10 -273 112 -389 156 -34 13 -71 28 -82 34 -12 6 -27 11 -34 11 -7 0
-121 -91 -253 -201z"/>
<path d="M4164 1050 c-109 -16 -138 -43 -194 -185 -32 -81 -63 -125 -87 -125
-10 0 -13 33 -13 155 l0 155 -125 0 -125 0 0 -410 0 -411 123 3 122 3 3 163
c2 104 6 162 13 162 33 0 57 -34 126 -176 l74 -154 134 0 c85 0 135 4 135 10
0 6 -34 78 -75 160 -78 156 -124 219 -176 240 l-30 13 34 28 c19 15 48 56 64
91 38 79 69 108 122 115 l41 6 0 83 0 84 -57 -1 c-32 -1 -81 -5 -109 -9z"/>
<path d="M740 750 c0 -342 2 -332 -84 -345 l-46 -7 0 -79 0 -78 46 -7 c88 -13
210 9 265 47 54 37 62 82 67 337 l4 232 99 0 99 0 2 -307 3 -308 123 -3 122
-3 0 411 0 410 -350 0 -350 0 0 -300z"/>
<path d="M1642 643 l3 -408 117 -3 117 -3 153 225 153 225 5 -222 5 -222 118
-3 117 -3 0 411 0 410 -120 0 -119 0 -153 -226 -153 -226 -3 226 -2 226 -120
0 -120 0 2 -407z"/>
<path d="M2630 640 l0 -410 125 0 125 0 0 170 0 170 140 0 140 0 2 -167 3
-168 123 -3 122 -3 0 411 0 410 -125 0 -125 0 0 -140 0 -140 -140 0 -140 0 0
140 0 140 -125 0 -125 0 0 -410z"/>
</g>
</svg>
