<?xml version="1.0" standalone="no"?>
<!DOCTYPE svg PUBLIC "-//W3C//DTD SVG 20010904//EN"
 "http://www.w3.org/TR/2001/REC-SVG-20010904/DTD/svg10.dtd">
<svg version="1.0" xmlns="http://www.w3.org/2000/svg"
 width="512.000000pt" height="512.000000pt" viewBox="0 0 512.000000 512.000000"
 preserveAspectRatio="xMidYMid meet">

<g transform="translate(0.000000,512.000000) scale(0.100000,-0.100000)"
fill="#000000" stroke="none">
<path d="M3114 4187 c-33 -29 -78 -65 -98 -82 -21 -16 -49 -41 -63 -54 -26
-23 -476 -401 -517 -433 -11 -9 -19 -19 -16 -21 9 -8 102 -47 112 -47 5 0 71
53 147 118 279 238 440 372 445 372 3 0 6 -635 6 -1410 l0 -1410 -247 2 -248
3 -3 1056 -2 1055 -53 22 c-29 12 -56 22 -59 22 -4 0 -31 11 -60 25 -29 13
-78 34 -108 45 -30 12 -88 35 -127 51 -40 16 -106 42 -145 58 -40 16 -103 41
-141 56 l-67 27 -48 -38 c-26 -22 -94 -79 -152 -129 -58 -49 -130 -110 -160
-135 -168 -137 -568 -475 -583 -492 -16 -19 -17 -72 -15 -882 l3 -861 57 -3
58 -3 0 843 0 843 167 140 c92 77 269 225 393 329 l225 189 3 -1172 2 -1172
58 3 57 3 3 1188 c1 815 5 1187 13 1187 14 0 541 -211 557 -223 9 -7 12 -236
12 -1083 l0 -1074 365 0 365 0 0 1495 c0 822 2 1495 4 1495 2 0 131 -51 287
-113 l284 -114 5 -1379 5 -1379 58 -3 57 -3 0 1420 0 1419 -47 18 c-27 9 -64
24 -83 32 -114 47 -315 128 -375 152 -38 15 -110 44 -160 64 -49 20 -94 36
-100 36 -5 0 -37 -24 -71 -53z"/>
</g>
</svg>
