<?xml version="1.0" encoding="UTF-8"?> <svg xmlns="http://www.w3.org/2000/svg" width="219" height="46" viewBox="0 0 219 46" fill="none"><g clip-path="url(#clip0_2056_1047)"><mask id="mask0_2056_1047" style="mask-type:luminance" maskUnits="userSpaceOnUse" x="0" y="0" width="219" height="46"><path d="M219 0.071228H0V45.7419H219V0.071228Z" fill="white"></path></mask><g mask="url(#mask0_2056_1047)"><path d="M22.8837 0.071228L0 22.83V45.5887H45.7811L22.8837 0.071228ZM22.8837 45.5887L0 22.83H22.8837V45.5887Z" fill="#00240C"></path><path d="M49.5957 23.7611C49.5957 29.5532 51.9097 35.1083 56.0286 39.2045C60.1474 43.3004 65.7341 45.6017 71.5595 45.6026V1.90582C68.6739 1.90619 65.8165 2.47186 63.151 3.57052C60.4852 4.66918 58.0633 6.27932 56.0236 8.30893C53.9839 10.3385 52.3663 12.7478 51.2634 15.3992C50.1605 18.0505 49.5938 20.8919 49.5957 23.7611Z" fill="#00240C"></path><path d="M89.7449 45.5895V27.5115L71.5605 45.5895H89.7449Z" fill="#00240C"></path><path d="M71.5605 1.90582L89.7449 19.9864V1.90582H71.5605Z" fill="#00240C"></path><path d="M22.8887 22.83V0.071228L45.7779 22.83V45.5887L22.8887 22.83Z" fill="url(#paint0_linear_2056_1047)"></path><path d="M99.082 21.0429H101.911L107.004 1.92023H121.804L126.899 21.0429H129.728L129.616 28.1711H99.082V21.0429ZM110.025 21.0429H118.785L115.766 9.03719H113.043L110.025 21.0429Z" fill="#00240C"></path><path d="M133.455 28.17V1.90826H154.586V9.03629H141.945V12.0378H151.935V18.0406H141.945V21.042H154.586V28.17H133.455Z" fill="#00240C"></path><path d="M172.321 28.9209C169.648 28.9634 167.011 28.324 164.658 27.0642C162.464 25.8923 160.628 24.1561 159.34 22.0369C158.079 19.918 157.414 17.5012 157.414 15.0391C157.414 12.5771 158.079 10.1603 159.34 8.04135C160.63 5.92328 162.466 4.18734 164.658 3.01401C167.011 1.75419 169.648 1.11489 172.321 1.15718C174.985 1.15718 177.293 1.66342 179.245 2.6759C181.096 3.60888 182.704 4.95823 183.941 6.61684C185.103 8.1874 185.961 9.96012 186.469 11.8437H177.792C177.386 10.9094 176.706 10.1184 175.84 9.57396C174.912 8.9605 173.742 8.65385 172.332 8.65385C171.232 8.63379 170.145 8.89934 169.18 9.42429C168.263 9.93655 167.521 10.7083 167.047 11.6414C166.552 12.7053 166.295 13.8638 166.295 15.0363C166.295 16.2089 166.552 17.3674 167.047 18.4313C167.521 19.3644 168.263 20.1362 169.18 20.6485C170.145 21.1725 171.232 21.4371 172.332 21.4161C173.865 21.4161 175.11 21.0355 176.067 20.2743C176.986 19.5646 177.658 18.5868 177.989 17.478H186.669C186.144 19.4963 185.256 21.4034 184.047 23.1067C182.802 24.8533 181.17 26.2911 179.275 27.3082C177.305 28.3834 174.987 28.9209 172.321 28.9209Z" fill="#00240C"></path><path d="M203.829 28.9215C201.157 28.9642 198.52 28.3248 196.169 27.0646C193.974 25.8935 192.137 24.1571 190.848 22.0372C189.587 19.9182 188.922 17.5014 188.922 15.0394C188.922 12.5774 189.587 10.1606 190.848 8.04162C192.137 5.92236 193.974 4.18609 196.169 3.01429C198.537 1.79231 201.166 1.15442 203.834 1.15442C206.502 1.15442 209.131 1.79231 211.499 3.01429C213.693 4.1872 215.53 5.9232 216.82 8.04162C218.079 10.1612 218.743 12.5778 218.743 15.0394C218.743 17.5011 218.079 19.9177 216.82 22.0372C215.53 24.1556 213.693 25.8916 211.499 27.0646C209.145 28.3268 206.503 28.9661 203.829 28.9215ZM203.829 21.4164C204.905 21.4297 205.966 21.1508 206.895 20.6099C207.816 20.0688 208.566 19.2827 209.062 18.3401C209.585 17.3173 209.857 16.1864 209.857 15.0394C209.857 13.8924 209.585 12.7614 209.062 11.7387C208.566 10.7962 207.816 10.01 206.895 9.46893C205.957 8.93849 204.898 8.65958 203.819 8.65958C202.74 8.65958 201.681 8.93849 200.743 9.46893C199.822 10.01 199.071 10.7962 198.574 11.7387C198.054 12.7619 197.783 13.8927 197.783 15.0394C197.783 16.1862 198.054 17.3169 198.574 18.3401C199.071 19.2827 199.822 20.0688 200.743 20.6099C201.678 21.1542 202.745 21.4331 203.829 21.4164Z" fill="#00240C"></path><path d="M99.082 45.5087V37.322H104.514V38.6302H100.481V45.5087H99.082Z" fill="#00240C"></path><path d="M105.574 45.509V37.3223H109.198C109.776 37.309 110.349 37.4326 110.87 37.6824C111.328 37.9062 111.714 38.2527 111.985 38.683C112.244 39.1095 112.38 39.5981 112.38 40.0962C112.38 40.5946 112.244 41.0834 111.985 41.51C111.714 41.9387 111.327 42.2841 110.87 42.5075C110.351 42.7637 109.777 42.891 109.198 42.8788H106.968V45.509H105.574ZM109.198 41.5679C109.668 41.5981 110.132 41.4542 110.502 41.1635C110.654 41.0301 110.774 40.8649 110.853 40.6801C110.933 40.495 110.97 40.2946 110.962 40.0938C110.97 39.8942 110.932 39.6958 110.852 39.5126C110.773 39.3294 110.653 39.1664 110.502 39.0349C110.132 38.7442 109.668 38.6 109.198 38.6302H106.984V41.5679H109.198Z" fill="#00240C"></path><path d="M115.127 45.5087L116.362 42.4906H114.587L112.529 37.322H114.029L115.535 41.1798H116.886L118.394 37.322H119.852L116.594 45.5087H115.127Z" fill="#00240C"></path><path d="M120.598 45.5087V37.322H127.443V45.5087H126.033V38.6302H121.997V45.5087H120.598Z" fill="#00240C"></path><path d="M129.148 45.5087V37.322H135.994V45.5087H134.584V38.6302H130.548V45.5087H129.148Z" fill="#00240C"></path><path d="M136.994 45.5087L139.135 37.322H142.605L144.748 45.5087H143.313L142.756 43.4025H138.981L138.424 45.5087H136.994ZM139.314 42.0943H142.43L141.524 38.6302H140.227L139.314 42.0943Z" fill="#00240C"></path><path d="M148.701 45.5087V37.322H150.095V40.7143H151.488L153.9 37.322H155.511L152.724 41.2739L155.664 45.5087H153.992L151.544 42.0222H150.097V45.5087H148.701Z" fill="#00240C"></path><path d="M160.099 45.7412C159.312 45.7553 158.536 45.5642 157.847 45.1867C157.189 44.8187 156.643 44.2819 156.264 43.632C155.887 42.9569 155.689 42.1978 155.689 41.4261C155.689 40.6542 155.887 39.8951 156.264 39.22C156.643 38.5703 157.189 38.0333 157.847 37.6653C158.54 37.2932 159.314 37.0983 160.101 37.0983C160.887 37.0983 161.662 37.2932 162.355 37.6653C163.012 38.0336 163.557 38.5703 163.934 39.22C164.313 39.8945 164.512 40.6537 164.512 41.4261C164.512 42.1983 164.313 42.9575 163.934 43.632C163.557 44.2817 163.012 44.8184 162.355 45.1867C161.664 45.5645 160.886 45.7556 160.099 45.7412ZM160.099 44.433C160.631 44.4409 161.156 44.307 161.618 44.0449C162.06 43.7945 162.422 43.4256 162.664 42.9809C162.911 42.495 163.039 41.958 163.039 41.4136C163.039 40.869 162.911 40.3322 162.664 39.8463C162.42 39.4027 162.059 39.0341 161.618 38.7821C161.153 38.5292 160.631 38.3969 160.101 38.3969C159.57 38.3969 159.048 38.5292 158.583 38.7821C158.141 39.0333 157.778 39.4019 157.535 39.8463C157.287 40.3322 157.158 40.869 157.158 41.4136C157.158 41.958 157.287 42.495 157.535 42.9809C157.777 43.4265 158.14 43.7953 158.583 44.0449C159.044 44.3067 159.568 44.4409 160.099 44.433Z" fill="#00240C"></path><path d="M165.84 45.5087V37.322H168.003L170.233 42.2941H170.646L172.892 37.322H175.069V45.5087H173.675V39.3923L173.734 38.8076H173.661L171.521 43.5799H169.402L167.264 38.8076H167.195L167.253 39.3923V45.5087H165.84Z" fill="#00240C"></path><path d="M176.742 45.5087V37.322H183.591V45.5087H182.178V38.6302H178.136V45.5087H176.742Z" fill="#00240C"></path><path d="M184.59 45.5087L186.731 37.322H190.204L192.344 45.5087H190.909L190.351 43.4025H186.58L186.023 45.5087H184.59ZM186.909 42.0943H190.025L189.119 38.6302H187.815L186.909 42.0943Z" fill="#00240C"></path><path d="M193.355 45.5087V37.322H194.749V40.7143H198.788V37.322H200.201V45.5087H198.788V42.0222H194.755V45.5087H193.355Z" fill="#00240C"></path><path d="M201.908 45.509V37.3223H203.302V43.0536L203.244 43.608H203.313L207.079 37.3169H208.868V45.5035H207.455V39.7723L207.524 39.2181H207.455L203.692 45.5117L201.908 45.509Z" fill="#00240C"></path><path d="M210.576 45.5084V37.3218H211.971V43.053L211.912 43.6072H211.981L215.745 37.3161H217.534V45.503H216.123V39.7715L216.193 39.2173H216.123L212.358 45.5112L210.576 45.5084ZM214.092 36.3267C213.567 36.3563 213.051 36.1846 212.651 35.8473C212.478 35.6906 212.342 35.4987 212.252 35.285C212.162 35.0711 212.118 34.8402 212.126 34.6083H213.241C213.235 34.7156 213.251 34.8228 213.289 34.9233C213.327 35.024 213.384 35.1157 213.458 35.1933C213.633 35.3427 213.859 35.4184 214.088 35.4039C214.32 35.4184 214.548 35.343 214.724 35.1933C214.8 35.1165 214.86 35.0251 214.898 34.9244C214.936 34.8236 214.953 34.7161 214.947 34.6083H216.062C216.07 34.8408 216.027 35.0721 215.936 35.2861C215.844 35.5003 215.706 35.6916 215.532 35.8473C215.131 36.1835 214.616 36.3547 214.092 36.3267Z" fill="#00240C"></path></g></g><defs><linearGradient id="paint0_linear_2056_1047" x1="50.5776" y1="38.9789" x2="29.9171" y2="18.2028" gradientUnits="userSpaceOnUse"><stop stop-color="#00240C"></stop><stop offset="1" stop-color="#8DC26A"></stop></linearGradient><clipPath id="clip0_2056_1047"><rect width="219" height="46" fill="white"></rect></clipPath></defs></svg> 