<?xml version="1.0" encoding="UTF-8"?> <svg xmlns="http://www.w3.org/2000/svg" width="212" height="48" viewBox="0 0 212 48" fill="none"><g clip-path="url(#clip0_2056_1201)"><mask id="mask0_2056_1201" style="mask-type:luminance" maskUnits="userSpaceOnUse" x="0" y="0" width="212" height="48"><path d="M212 0H0V48H212V0Z" fill="white"></path></mask><g mask="url(#mask0_2056_1201)"><path d="M35.1328 47.1159V43.9549H47.4909V31.5839H50.6489V47.1153L35.1328 47.1159Z" fill="#7CB5B5"></path><path d="M0 47.1159V31.5845H3.15811V43.9555H15.5163V47.1165L0 47.1159Z" fill="#7CB5B5"></path><path d="M47.4922 15.5315V3.16109H35.1328V0H50.6489V15.5315H47.4922Z" fill="#7CB5B5"></path><path d="M0 15.5315V0H15.5163V3.16109H3.15811V15.5315H0Z" fill="#7CB5B5"></path><path d="M41.1483 9.17517H9.35742V15.5281H41.1483V9.17517Z" fill="#121212"></path><path d="M41.1483 31.5851H9.35742V37.9379H41.1483V31.5851Z" fill="#121212"></path><path d="M34.6971 20.3808H9.35742V26.7337H34.6971V20.3808Z" fill="#121212"></path><path d="M82.8184 32.3029V14.8129H97.327C98.4205 14.7297 99.5083 15.0365 100.398 15.6791C100.744 16.0383 101.011 16.4672 101.18 16.9376C101.348 17.408 101.414 17.9089 101.374 18.407V20.461C101.388 20.8586 101.321 21.255 101.177 21.6263C101.034 21.9975 100.818 22.336 100.541 22.6218C100.324 22.8408 100.075 23.0261 99.8031 23.1715L99.5359 23.3152L99.8018 23.462C100.116 23.6347 100.401 23.8573 100.644 24.1213C101.237 24.7785 101.547 25.6431 101.508 26.5277V28.6771C101.534 29.2147 101.422 29.75 101.183 30.2323C100.944 30.7147 100.587 31.1279 100.144 31.433C99.2911 32.0186 98.0334 32.3029 96.3023 32.3029H82.8184ZM87.2529 28.6096H95.7141C96.5756 28.6096 96.8774 28.4563 96.9806 28.3643C97.0862 28.2371 97.1644 28.09 97.2114 27.9316C97.2582 27.7732 97.2725 27.6068 97.2532 27.4427V26.1693C97.2727 26.0039 97.2586 25.8362 97.2116 25.6763C97.1647 25.5164 97.086 25.3679 96.98 25.2393C96.8729 25.1472 96.57 24.9951 95.7141 24.9951H87.2529V28.6096ZM87.2529 21.5641H95.7141C96.1168 21.5972 96.5215 21.5322 96.8938 21.3748L96.9069 21.3674L96.9181 21.3573C97.0054 21.2709 97.0725 21.1662 97.1141 21.0508C97.1556 20.9352 97.1709 20.8119 97.1588 20.6896V19.0861C97.1705 18.9639 97.1551 18.8408 97.1137 18.7253C97.0722 18.6098 97.0054 18.5051 96.9188 18.4185L96.9082 18.4089L96.8955 18.4021C96.523 18.2437 96.1174 18.1789 95.7141 18.2131H87.2529V21.5641Z" fill="#121212"></path><path d="M104.098 32.3026V14.8125H118.577C119.672 14.7282 120.764 15.0201 121.671 15.6403C122.024 16.0034 122.296 16.4385 122.467 16.9158C122.638 17.3932 122.704 17.9015 122.662 18.4067V22.1569C122.703 22.6546 122.636 23.1551 122.467 23.6248C122.298 24.0946 122.03 24.5227 121.682 24.88C120.784 25.5331 119.682 25.8423 118.575 25.7515H108.533V32.3026H104.098ZM108.533 22.1847H116.881C117.288 22.2338 117.7 22.1557 118.06 21.9609C118.237 21.7399 118.319 21.4584 118.29 21.1772V19.3859C118.308 19.2456 118.296 19.1029 118.256 18.9673C118.215 18.8317 118.147 18.7061 118.055 18.5985C117.696 18.4057 117.286 18.3289 116.881 18.3791H108.533V22.1847Z" fill="#121212"></path><path d="M129.747 32.3025C128.058 32.3025 126.913 31.9981 126.249 31.3708C125.619 30.7335 125.314 29.6266 125.314 27.9921V19.1235C125.314 17.494 125.617 16.394 126.24 15.7612C126.903 15.1238 128.051 14.8156 129.747 14.8156H141.946C143.656 14.8156 144.793 15.1257 145.421 15.7612C146.071 16.3858 146.387 17.4845 146.387 19.1235V27.9921C146.387 29.6355 146.071 30.7405 145.415 31.3689C144.785 31.9993 143.651 32.3025 141.946 32.3025H129.747ZM129.82 28.4818H141.88V18.4741H129.82V28.4818Z" fill="#121212"></path><path d="M163.9 32.3025V18.6707H153.579V32.3025H149.074V14.8501H168.407V32.3025H163.9Z" fill="#121212"></path><path d="M197.524 14.8508C196.423 14.7685 195.328 15.061 194.416 15.681C194.067 16.0389 193.801 16.4675 193.633 16.9379C193.466 17.4083 193.401 17.9094 193.444 18.4071V22.3155C193.405 22.8092 193.471 23.3056 193.64 23.7714C193.807 24.2371 194.075 24.661 194.421 25.0146C195.245 25.6108 196.248 25.9084 197.263 25.8576L191.973 32.3045H197.608L202.356 25.8638H207.563V32.3045H211.998V14.852L197.524 14.8508ZM207.566 22.3733H199.224C198.815 22.4159 198.402 22.3364 198.039 22.1447C197.867 21.9277 197.788 21.6518 197.817 21.3767V19.3761C197.788 19.0996 197.867 18.8226 198.04 18.6051C198.403 18.4124 198.815 18.3339 199.224 18.3793H207.566V22.3733Z" fill="#121212"></path><path d="M80.2284 14.8132H60.8965V18.61H80.2284V14.8132Z" fill="#121212"></path><path d="M80.2284 28.5068H60.8965V32.3035H80.2284V28.5068Z" fill="#121212"></path><path d="M76.3057 21.66H60.8965V25.4567H76.3057V21.66Z" fill="#121212"></path><path d="M190.59 14.8132H171.258V18.61H190.59V14.8132Z" fill="#121212"></path><path d="M190.59 28.5068H171.258V32.3035H190.59V28.5068Z" fill="#121212"></path><path d="M186.667 21.66H171.258V25.4567H186.667V21.66Z" fill="#121212"></path></g></g><defs><clipPath id="clip0_2056_1201"><rect width="212" height="48" fill="white"></rect></clipPath></defs></svg> 