<?xml version="1.0" encoding="UTF-8"?> <svg xmlns="http://www.w3.org/2000/svg" width="242" height="39" viewBox="0 0 242 39" fill="none"><g clip-path="url(#clip0_2056_937)"><path d="M68.4016 14.5895H65.6047V4.57458H65.4911L58.0199 14.5895H55.2215V0.341453H58.0183V10.3645H58.1385L65.6047 0.341453H68.4016V14.5895ZM75.1223 14.5895H72.3255V0.341453H75.1223V5.96395H82.5675V0.341453H85.3367V14.5895H82.5675V8.45995H75.1223V14.5895ZM95.6696 14.9307C94.6484 14.9436 93.6342 14.7616 92.6811 14.3945C91.7985 14.052 90.9942 13.5346 90.3164 12.8735C89.6421 12.2061 89.1172 11.4029 88.7766 10.5172C88.0416 8.54916 88.0416 6.38174 88.7766 4.4137C89.1172 3.52801 89.6421 2.72485 90.3164 2.05745C90.995 1.39807 91.7999 0.882903 92.6828 0.542953C93.6354 0.173627 94.6496 -0.0105791 95.6712 0.000203249C96.5156 -0.00416267 97.3557 0.120223 98.1627 0.369078C98.926 0.612828 99.6423 0.978453 100.282 1.45295C100.929 1.93395 101.481 2.52545 101.914 3.1982C102.379 3.92458 102.707 4.7257 102.881 5.56745H100.022C99.723 4.64526 99.1354 3.84372 98.3462 3.28108C97.557 2.7485 96.6211 2.47633 95.6696 2.5027C95.0387 2.47903 94.4101 2.59096 93.8262 2.83095C93.2443 3.0702 92.7213 3.43277 92.293 3.8937C91.4153 4.88107 90.9593 6.17325 91.0229 7.49308C91.0147 8.1837 91.1268 8.86945 91.3542 9.52433C91.5572 10.1093 91.8772 10.6505 92.293 11.1152C92.6957 11.5458 93.1895 11.8838 93.7417 12.1016C94.3482 12.3426 94.9959 12.4629 95.6485 12.4558C96.6018 12.4813 97.5387 12.2042 98.3251 11.6645C99.1144 11.0876 99.7008 10.2832 99.9996 9.36345H102.86C102.529 11.0082 101.604 12.4731 100.261 13.478C99.6205 13.9543 98.9038 14.3186 98.1416 14.5553C97.3349 14.8077 96.4936 14.9322 95.6485 14.9242M118.796 14.5895H115.999V4.57458H115.879L108.413 14.5895H105.608V0.341453H108.413V10.3645H108.526L115.998 0.341453H118.796V14.5895ZM121.482 0.341453H135.559V2.84395H129.902V14.5895H127.105V2.84395H121.482V0.341453ZM151.456 14.5895H148.659V4.57458H148.539L141.067 14.5895H138.27V0.341453H141.067V10.3645H141.187L148.659 0.341453H151.456V14.5895ZM54.4451 33.3777C54.7656 33.4135 55.0881 33.329 55.3498 33.1404C55.5539 32.8868 55.6615 32.569 55.6535 32.2435L56.4656 21.6306H68.0004V33.3777H70.0761V39.0002H67.3085V35.8802H56.1473V39.0002H53.4073V33.3777H54.4451ZM65.2312 33.3777V24.1266H59.0301L58.3642 32.3279C58.3545 32.5961 58.3269 32.8626 58.2814 33.1275C58.2814 33.238 58.2392 33.3225 58.2246 33.3777H65.2312ZM78.9082 36.2215C77.8958 36.2305 76.8909 36.0463 75.9474 35.6787C75.0603 35.3328 74.2513 34.8129 73.568 34.1496C72.8878 33.4722 72.35 32.6656 71.9861 31.7771C71.2141 29.831 71.2141 27.6635 71.9861 25.7175C72.3499 24.834 72.8904 24.0344 73.5745 23.3677C74.2631 22.6965 75.0802 22.1714 75.9766 21.824C77.8554 21.1199 79.9253 21.1199 81.8041 21.824C82.666 22.154 83.4518 22.656 84.1137 23.2995C84.7715 23.956 85.2847 24.7392 85.6242 25.5988C86.0026 26.5641 86.191 27.5895 86.1764 28.623V29.0471C86.1877 29.1608 86.1877 29.2746 86.1764 29.3883C86.1829 29.5118 86.1829 29.6386 86.1764 29.7621H74.2323C74.3557 30.9126 74.9014 31.9802 75.7639 32.7651C76.6149 33.5256 77.7291 33.9351 78.879 33.9058C79.7073 33.9188 80.5259 33.7108 81.2454 33.3078C81.9243 32.9243 82.4798 32.3653 82.8566 31.6877H85.8288C85.3068 33.031 84.3849 34.1814 83.1879 34.9832C81.9141 35.8331 80.4097 36.27 78.879 36.2345M83.2935 27.4903C83.1242 26.4282 82.6106 25.4512 81.8317 24.71C81.0258 23.9796 79.9655 23.595 78.879 23.6391C77.7822 23.6135 76.7124 23.9812 75.8629 24.6758C75.0118 25.3955 74.4518 26.4006 74.2875 27.5033L83.2935 27.4903ZM89.0576 21.6306H97.2223C98.5299 21.5599 99.824 21.9244 100.903 22.6673C101.338 22.9761 101.689 23.384 101.926 23.8568C102.166 24.3281 102.283 24.8497 102.273 25.3778C102.295 26.0295 102.092 26.6697 101.694 27.1913C101.271 27.7146 100.729 28.1338 100.112 28.415V28.5271C100.865 28.7968 101.521 29.2795 101.997 29.9165C102.37 30.4329 102.598 31.0393 102.659 31.6733C102.72 32.3073 102.611 32.946 102.343 33.524C102.117 33.9935 101.792 34.4083 101.39 34.7395C100.937 35.1165 100.415 35.4025 99.8502 35.5812C99.168 35.8006 98.4501 35.9062 97.7306 35.8932H89.043L89.0576 21.6306ZM97.081 27.3928C97.692 27.4227 98.2983 27.273 98.8253 26.9622C99.037 26.8272 99.2089 26.6381 99.3231 26.4144C99.4373 26.1907 99.4898 25.9406 99.475 25.6898C99.4891 25.4365 99.4365 25.1838 99.3225 24.9571C99.2085 24.7305 99.0371 24.5377 98.8253 24.398C98.3013 24.0788 97.6938 23.9238 97.081 23.9527H91.8626V27.3928H97.081ZM97.4269 33.5516C98.075 33.5906 98.7149 33.3972 99.2298 33.0088C99.4368 32.8422 99.603 32.6304 99.7157 32.3895C99.8283 32.1487 99.8843 31.8853 99.8794 31.6195C99.8902 31.3525 99.8368 31.0869 99.7238 30.8448C99.6107 30.6028 99.4413 30.3914 99.2298 30.2285C98.7075 29.8501 98.0707 29.6636 97.4269 29.7003H91.8626V33.537L97.4269 33.5516ZM112.044 36.2215C111.035 36.2304 110.032 36.0462 109.092 35.6787C108.202 35.3365 107.392 34.8161 106.711 34.1496C106.029 33.473 105.489 32.6669 105.122 31.7787C104.35 29.8322 104.35 27.664 105.122 25.7175C105.492 24.8315 106.037 24.0299 106.725 23.3612C107.407 22.695 108.224 22.1717 109.119 21.8256C110.051 21.4631 111.043 21.2811 112.043 21.2893C113.03 21.291 114.008 21.4746 114.926 21.8321C115.793 22.1618 116.582 22.6688 117.243 23.3206C117.901 23.9706 118.413 24.7506 118.747 25.607C119.121 26.5722 119.304 27.5976 119.291 28.6295V29.0552C119.303 29.169 119.303 29.2827 119.291 29.3948C119.303 29.52 119.303 29.6451 119.291 29.7702H107.403C107.523 30.9207 108.065 31.9883 108.929 32.7732C109.78 33.5337 110.894 33.9416 112.044 33.9123C112.873 33.9253 113.69 33.719 114.411 33.3143C115.087 32.932 115.646 32.3724 116.028 31.6958H118.994C118.465 33.0332 117.538 34.1756 116.339 34.9686C115.062 35.8184 113.556 36.2552 112.023 36.2198M116.438 27.4773C116.268 26.4168 115.757 25.4406 114.982 24.697C114.174 23.9665 113.112 23.5821 112.023 23.6261C110.927 23.6013 109.858 23.9683 109.007 24.6612C108.157 25.3815 107.599 26.3875 107.438 27.4903L116.436 27.4757L116.438 27.4773ZM135.73 35.8802H132.903V24.1266H126.547L126.095 32.2581C126.096 33.2539 125.737 34.2164 125.085 34.9686C124.708 35.3204 124.262 35.5893 123.776 35.7581C123.289 35.9269 122.772 35.9917 122.259 35.9485H120.67V33.225H121.913C122.107 33.2477 122.304 33.2317 122.492 33.1778C122.679 33.124 122.855 33.0334 123.007 32.9113C123.24 32.5896 123.362 32.2028 123.353 31.8063L123.99 21.6452H135.7L135.73 35.8802ZM146.199 36.2215C145.175 36.2308 144.159 36.0467 143.204 35.6787C142.309 35.3362 141.491 34.821 140.795 34.1626C140.104 33.4965 139.558 32.6942 139.192 31.8063C138.799 30.8376 138.602 29.8002 138.612 28.7546C138.6 27.7135 138.797 26.6806 139.192 25.7175C139.561 24.8339 140.104 24.0343 140.79 23.3668C141.476 22.6993 142.29 22.1777 143.183 21.8337C144.138 21.4678 145.155 21.2858 146.178 21.2975C147.199 21.2846 148.213 21.4666 149.166 21.8337C150.062 22.1823 150.879 22.7072 151.568 23.3775C152.255 24.0453 152.798 24.8448 153.163 25.7256C153.574 26.6941 153.782 27.7341 153.777 28.7822C153.791 29.8273 153.596 30.8646 153.206 31.834C152.84 32.7218 152.294 33.5241 151.602 34.1902C150.909 34.8439 150.096 35.3585 149.208 35.7063C148.257 36.0752 147.243 36.2588 146.22 36.2475M146.22 33.7742C146.873 33.7807 147.521 33.6605 148.127 33.4183C148.695 33.1908 149.207 32.8398 149.624 32.3978C150.058 31.9363 150.396 31.3985 150.62 30.8118C151.1 29.502 151.1 28.0641 150.62 26.7542C150.398 26.1664 150.059 25.6296 149.624 25.1763C149.201 24.7388 148.691 24.3955 148.127 24.1688C146.902 23.6966 145.545 23.6966 144.32 24.1688C143.75 24.3996 143.232 24.7425 142.801 25.1763C142.356 25.6102 142.005 26.127 141.77 26.6973C141.289 28.0077 141.289 29.4462 141.77 30.7566C141.994 31.3448 142.335 31.8843 142.773 32.341C143.202 32.7813 143.719 33.1291 144.292 33.3647C144.895 33.6052 145.541 33.7255 146.192 33.7173M159.471 35.8802H156.675V21.629H169.686V35.8769H166.917V24.125H159.471V35.8769V35.8802ZM191.575 35.8802H188.776V25.5988H188.664L183.904 35.8786H181.312L176.55 25.5988H176.429V35.8786H173.633V21.6306H177.44L182.548 32.6676H182.66L187.768 21.6306H191.575V35.8802ZM201.956 36.2215C200.947 36.2297 199.944 36.0455 199.004 35.6787C198.115 35.3343 197.305 34.8142 196.623 34.1496C195.943 33.4711 195.403 32.6655 195.034 31.7787C194.271 29.8305 194.271 27.6657 195.034 25.7175C195.401 24.8352 195.944 24.0369 196.629 23.371C197.318 22.7007 198.135 22.1758 199.031 21.8272C199.963 21.4645 200.956 21.2825 201.956 21.291C202.948 21.2814 203.932 21.4577 204.859 21.811C205.72 22.1421 206.505 22.6434 207.168 23.2848C207.824 23.9446 208.338 24.7278 208.68 25.5858C209.059 26.5495 209.246 27.5765 209.231 28.6083V29.0341C209.241 29.1478 209.241 29.2616 209.231 29.3753C209.231 29.5005 209.22 29.6256 209.195 29.7491H197.314C197.438 30.8996 197.98 31.9656 198.841 32.7521C199.691 33.5126 200.806 33.9221 201.956 33.8912C202.784 33.9054 203.601 33.6996 204.323 33.2948C205.001 32.9148 205.561 32.354 205.94 31.6747H208.913C208.388 33.0163 207.467 34.1656 206.272 34.9686C204.996 35.8191 203.489 36.2559 201.956 36.2198V36.2215ZM206.371 27.4773C206.204 26.4156 205.693 25.4384 204.916 24.697C204.108 23.9653 203.045 23.5807 201.956 23.6261C200.862 23.5998 199.794 23.9671 198.947 24.6612C198.093 25.3797 197.533 26.3862 197.371 27.4903L206.371 27.4773ZM214.94 35.8802H212.143V21.629H214.94V27.245H222.385V21.629H225.154V35.8769H222.385V29.741H214.94V35.8769V35.8802ZM227.865 21.6306H241.942V24.1266H236.285V35.8786H233.488V24.1266H227.865V21.6306ZM30.1688 0.146453L18.7542 14.4302H8.11593V0.146453H0V35.4415H10.3979L22.2218 20.6637H32.7041V35.4415H40.82V0.146453H30.1688Z" fill="black"></path></g><defs><clipPath id="clip0_2056_937"><rect width="242" height="39" fill="white"></rect></clipPath></defs></svg> 