<?xml version="1.0" encoding="UTF-8"?> <svg xmlns="http://www.w3.org/2000/svg" width="210" height="47" viewBox="0 0 210 47" fill="none"><path d="M7.63794 14.2471C6.33327 14.2471 5.1616 13.9557 4.12294 13.3731C3.09694 12.7777 2.2926 11.9607 1.70994 10.9221C1.12727 9.87074 0.835938 8.68007 0.835938 7.35007C0.835938 6.02007 1.12727 4.83574 1.70994 3.79707C2.2926 2.74574 3.09694 1.92874 4.12294 1.34607C5.1616 0.750735 6.33327 0.453068 7.63794 0.453068C8.8666 0.453068 9.96227 0.712735 10.9249 1.23207C11.9003 1.73873 12.6666 2.42907 13.2239 3.30307C13.7939 4.1644 14.1169 5.10807 14.1929 6.13407H11.6279C11.5646 5.5514 11.3619 5.00674 11.0199 4.50007C10.6779 3.9934 10.2156 3.58807 9.63294 3.28407C9.05027 2.98007 8.38527 2.82807 7.63794 2.82807C6.80194 2.82807 6.06727 3.01807 5.43394 3.39807C4.8006 3.7654 4.31294 4.29107 3.97094 4.97507C3.62894 5.65907 3.45794 6.45074 3.45794 7.35007C3.45794 8.2494 3.62894 9.04107 3.97094 9.72507C4.31294 10.4091 4.8006 10.9411 5.43394 11.3211C6.06727 11.6884 6.80194 11.8721 7.63794 11.8721C8.38527 11.8721 9.05027 11.7201 9.63294 11.4161C10.2156 11.1121 10.6716 10.7067 11.0009 10.2001C11.3429 9.68074 11.5519 9.11074 11.6279 8.49007H14.1929C14.1169 9.52874 13.7939 10.4914 13.2239 11.3781C12.6539 12.2521 11.8813 12.9487 10.9059 13.4681C9.94327 13.9874 8.85394 14.2471 7.63794 14.2471Z" fill="#121212"></path><path d="M18.3658 14.0001H16.0098V4.38607H24.5788V14.0001H22.2228V6.55207H18.3658V14.0001Z" fill="#121212"></path><path d="M31.4089 4.13907C32.3589 4.13907 33.2075 4.34807 33.9549 4.76607C34.7149 5.1714 35.3102 5.7414 35.7409 6.47607C36.1715 7.21074 36.3869 8.0404 36.3869 8.96507C36.3869 9.23107 36.3679 9.50973 36.3299 9.80107H28.8059C28.9072 10.5737 29.1922 11.1691 29.6609 11.5871C30.1422 12.0051 30.7692 12.2141 31.5419 12.2141C32.1752 12.2141 32.6945 12.0811 33.0999 11.8151C33.5179 11.5364 33.7775 11.2071 33.8789 10.8271H36.2159C36.1272 11.4477 35.8739 12.0177 35.4559 12.5371C35.0379 13.0564 34.4805 13.4744 33.7839 13.7911C33.0999 14.0951 32.3272 14.2471 31.4659 14.2471C30.4779 14.2471 29.5975 14.0317 28.8249 13.6011C28.0522 13.1704 27.4505 12.5687 27.0199 11.7961C26.5892 11.0234 26.3739 10.1494 26.3739 9.17407C26.3739 8.2114 26.5892 7.35007 27.0199 6.59007C27.4505 5.8174 28.0459 5.21573 28.8059 4.78507C29.5785 4.3544 30.4462 4.13907 31.4089 4.13907ZM31.4469 6.17207C30.7882 6.17207 30.2372 6.34307 29.7939 6.68507C29.3505 7.02707 29.0465 7.5084 28.8819 8.12907H34.0689C33.9169 7.5084 33.6129 7.02707 33.1569 6.68507C32.7009 6.34307 32.1309 6.17207 31.4469 6.17207Z" fill="#121212"></path><path d="M48.1874 16.7931H45.9644V14.0001H38.1174V4.38607H40.4734V11.8341H44.2164V4.38607H46.5724V11.8341H48.1874V16.7931Z" fill="#121212"></path><path d="M52.6436 14.0001H49.7556V4.38607H52.0546V11.2071H52.1876L55.8926 4.38607H58.7806V14.0001H56.4816V7.17907H56.3296L52.6436 14.0001Z" fill="#121212"></path><path d="M65.239 14.2471C64.3396 14.2471 63.5353 14.0317 62.826 13.6011C62.1293 13.1704 61.5846 12.5751 61.192 11.8151C60.7993 11.0424 60.603 10.1684 60.603 9.19307C60.603 8.21774 60.7993 7.35007 61.192 6.59007C61.5846 5.8174 62.1293 5.21573 62.826 4.78507C63.5353 4.3544 64.3396 4.13907 65.239 4.13907C65.9356 4.13907 66.5753 4.28473 67.158 4.57607C67.7406 4.85473 68.1903 5.27907 68.507 5.84907H68.64V4.38607H71.015V14.0001H68.64V12.5371H68.507C68.1903 13.1071 67.7406 13.5377 67.158 13.8291C66.588 14.1077 65.9483 14.2471 65.239 14.2471ZM65.866 12.0811C66.7146 12.0811 67.386 11.8214 67.88 11.3021C68.3866 10.7827 68.64 10.0797 68.64 9.19307C68.64 8.31907 68.3866 7.6224 67.88 7.10307C67.386 6.57107 66.7146 6.30507 65.866 6.30507C65.0173 6.30507 64.3396 6.57107 63.833 7.10307C63.3263 7.6224 63.073 8.31907 63.073 9.19307C63.073 10.0797 63.3263 10.7827 63.833 11.3021C64.3396 11.8214 65.0173 12.0811 65.866 12.0811Z" fill="#121212"></path><path d="M73.443 14.1711C73.1896 14.1711 72.854 14.1394 72.436 14.0761V11.8911C72.5246 11.9037 72.645 11.9101 72.797 11.9101C73.177 11.9101 73.462 11.8467 73.652 11.7201C73.842 11.5807 73.9749 11.3337 74.0509 10.9791C74.1396 10.6117 74.203 10.0417 74.241 9.26907L74.526 4.38607H81.955V14.0001H79.599V6.55207H76.654L76.464 10.2001C76.3753 11.6314 76.0966 12.6511 75.628 13.2591C75.172 13.8671 74.4436 14.1711 73.443 14.1711Z" fill="#121212"></path><path d="M87.1687 14.0001H84.2807V4.38607H86.5797V11.2071H86.7127L90.4177 4.38607H93.3057V14.0001H91.0067V7.17907H90.8547L87.1687 14.0001Z" fill="#121212"></path><path d="M99.555 14.2471C98.1364 14.2471 97.0154 13.9241 96.192 13.2781C95.3687 12.6321 94.957 11.7517 94.957 10.6371H97.294C97.3067 11.1184 97.5094 11.4921 97.902 11.7581C98.3074 12.0241 98.8584 12.1571 99.555 12.1571C100.188 12.1571 100.67 12.0557 100.999 11.8531C101.341 11.6504 101.512 11.3591 101.512 10.9791C101.512 10.6624 101.385 10.4154 101.132 10.2381C100.891 10.0607 100.549 9.97207 100.106 9.97207H97.978V8.24307H99.897C100.34 8.24307 100.682 8.16074 100.923 7.99607C101.164 7.81874 101.284 7.57174 101.284 7.25507C101.284 6.92574 101.138 6.6724 100.847 6.49507C100.556 6.31774 100.144 6.22907 99.612 6.22907C99.0167 6.22907 98.5417 6.34307 98.187 6.57107C97.845 6.7864 97.6487 7.09674 97.598 7.50207H95.28C95.3307 6.48873 95.7487 5.67807 96.534 5.07007C97.3194 4.4494 98.3454 4.13907 99.612 4.13907C100.423 4.13907 101.138 4.2594 101.759 4.50007C102.392 4.72807 102.88 5.05107 103.222 5.46907C103.564 5.88707 103.735 6.37474 103.735 6.93207C103.735 7.76807 103.323 8.42674 102.5 8.90807V9.06007C102.969 9.2374 103.323 9.51607 103.564 9.89607C103.817 10.2634 103.944 10.6941 103.944 11.1881C103.944 12.1127 103.545 12.8537 102.747 13.4111C101.949 13.9684 100.885 14.2471 99.555 14.2471Z" fill="#121212"></path><path d="M108.794 14.0001H105.906V4.38607H108.205V11.2071H108.338L112.043 4.38607H114.931V14.0001H112.632V7.17907H112.48L108.794 14.0001Z" fill="#121212"></path><path d="M117.247 17.8001V4.38607H119.603V5.84907H119.755C120.072 5.27907 120.515 4.85473 121.085 4.57607C121.668 4.28473 122.307 4.13907 123.004 4.13907C123.903 4.13907 124.708 4.3544 125.417 4.78507C126.126 5.21573 126.677 5.8174 127.07 6.59007C127.463 7.35007 127.659 8.21774 127.659 9.19307C127.659 10.1684 127.463 11.0424 127.07 11.8151C126.677 12.5751 126.126 13.1704 125.417 13.6011C124.708 14.0317 123.903 14.2471 123.004 14.2471C122.307 14.2471 121.668 14.1077 121.085 13.8291C120.515 13.5377 120.072 13.1071 119.755 12.5371H119.603V17.8001H117.247ZM122.377 12.0811C123.226 12.0811 123.903 11.8214 124.41 11.3021C124.917 10.7701 125.17 10.0671 125.17 9.19307C125.17 8.3064 124.917 7.6034 124.41 7.08407C123.903 6.56473 123.226 6.30507 122.377 6.30507C121.541 6.30507 120.87 6.56473 120.363 7.08407C119.856 7.6034 119.603 8.3064 119.603 9.19307C119.603 10.0671 119.856 10.7701 120.363 11.3021C120.87 11.8214 121.541 12.0811 122.377 12.0811Z" fill="#121212"></path><path d="M134.134 14.2471C133.133 14.2471 132.24 14.0317 131.455 13.6011C130.67 13.1704 130.055 12.5751 129.612 11.8151C129.169 11.0424 128.947 10.1684 128.947 9.19307C128.947 8.21774 129.169 7.35007 129.612 6.59007C130.055 5.8174 130.67 5.21573 131.455 4.78507C132.24 4.3544 133.133 4.13907 134.134 4.13907C135.135 4.13907 136.028 4.3544 136.813 4.78507C137.598 5.21573 138.213 5.8174 138.656 6.59007C139.099 7.35007 139.321 8.21774 139.321 9.19307C139.321 10.1684 139.099 11.0424 138.656 11.8151C138.213 12.5751 137.598 13.1704 136.813 13.6011C136.028 14.0317 135.135 14.2471 134.134 14.2471ZM134.134 12.0621C134.957 12.0621 135.61 11.8024 136.091 11.2831C136.585 10.7637 136.832 10.0671 136.832 9.19307C136.832 8.33174 136.585 7.6414 136.091 7.12207C135.597 6.59007 134.945 6.32407 134.134 6.32407C133.323 6.32407 132.671 6.59007 132.177 7.12207C131.683 7.6414 131.436 8.33174 131.436 9.19307C131.436 10.0671 131.683 10.7637 132.177 11.2831C132.671 11.8024 133.323 12.0621 134.134 12.0621Z" fill="#121212"></path><path d="M148.413 9.07907C148.933 9.2944 149.332 9.59207 149.61 9.97207C149.889 10.3394 150.028 10.7764 150.028 11.2831C150.028 12.0811 149.699 12.7334 149.04 13.2401C148.382 13.7467 147.463 14.0001 146.285 14.0001H141.117V4.38607H146C147.166 4.38607 148.071 4.62673 148.717 5.10807C149.363 5.57674 149.686 6.19107 149.686 6.95107C149.686 7.8124 149.262 8.47107 148.413 8.92707V9.07907ZM143.454 6.24807V8.24307H145.886C146.355 8.24307 146.703 8.16074 146.931 7.99607C147.172 7.81874 147.292 7.57174 147.292 7.25507C147.292 6.9384 147.172 6.6914 146.931 6.51407C146.703 6.33674 146.355 6.24807 145.886 6.24807H143.454ZM146.152 12.1381C146.646 12.1381 147.014 12.0494 147.254 11.8721C147.508 11.6821 147.634 11.4161 147.634 11.0741C147.634 10.7321 147.508 10.4724 147.254 10.2951C147.014 10.1051 146.646 10.0101 146.152 10.0101H143.454V12.1381H146.152Z" fill="#121212"></path><path d="M156.1 14.2471C155.2 14.2471 154.396 14.0317 153.687 13.6011C152.99 13.1704 152.445 12.5751 152.053 11.8151C151.66 11.0424 151.464 10.1684 151.464 9.19307C151.464 8.21774 151.66 7.35007 152.053 6.59007C152.445 5.8174 152.99 5.21573 153.687 4.78507C154.396 4.3544 155.2 4.13907 156.1 4.13907C156.796 4.13907 157.436 4.28473 158.019 4.57607C158.601 4.85473 159.051 5.27907 159.368 5.84907H159.501V4.38607H161.876V14.0001H159.501V12.5371H159.368C159.051 13.1071 158.601 13.5377 158.019 13.8291C157.449 14.1077 156.809 14.2471 156.1 14.2471ZM156.727 12.0811C157.575 12.0811 158.247 11.8214 158.741 11.3021C159.247 10.7827 159.501 10.0797 159.501 9.19307C159.501 8.31907 159.247 7.6224 158.741 7.10307C158.247 6.57107 157.575 6.30507 156.727 6.30507C155.878 6.30507 155.2 6.57107 154.694 7.10307C154.187 7.6224 153.934 8.31907 153.934 9.19307C153.934 10.0797 154.187 10.7827 154.694 11.3021C155.2 11.8214 155.878 12.0811 156.727 12.0811Z" fill="#121212"></path><path d="M170.555 8.01507V4.38607H172.911V14.0001H170.555V10.2001H166.546V14.0001H164.19V4.38607H166.546V8.01507H170.555Z" fill="#121212"></path><path d="M181.599 8.01507V4.38607H183.955V14.0001H181.599V10.2001H177.59V14.0001H175.234V4.38607H177.59V8.01507H181.599Z" fill="#121212"></path><path d="M190.706 7.25507C191.96 7.25507 192.941 7.5654 193.651 8.18607C194.36 8.79407 194.715 9.60474 194.715 10.6181C194.715 11.6314 194.36 12.4484 193.651 13.0691C192.941 13.6897 191.96 14.0001 190.706 14.0001H186.279V4.38607H188.616V7.25507H190.706ZM195.836 14.0001V4.38607H198.192V14.0001H195.836ZM190.668 11.9861C191.212 11.9861 191.624 11.8657 191.903 11.6251C192.194 11.3844 192.34 11.0487 192.34 10.6181C192.34 10.1874 192.194 9.85807 191.903 9.63007C191.624 9.3894 191.212 9.26907 190.668 9.26907H188.616V11.9861H190.668Z" fill="#121212"></path><path d="M203.403 14.0001H200.515V4.38607H202.814V11.2071H202.947L206.652 4.38607H209.54V14.0001H207.241V7.17907H207.089L203.403 14.0001ZM204.961 3.34107C203.897 3.34107 203.048 3.0814 202.415 2.56207C201.781 2.03007 201.465 1.28273 201.465 0.320068H203.365C203.403 1.28273 203.935 1.76407 204.961 1.76407C205.987 1.76407 206.519 1.28273 206.557 0.320068H208.457C208.457 1.28273 208.14 2.03007 207.507 2.56207C206.873 3.0814 206.025 3.34107 204.961 3.34107Z" fill="#121212"></path><path d="M32.2791 43.2471C30.8604 43.2471 29.7394 42.9241 28.9161 42.2781C28.0927 41.6321 27.6811 40.7517 27.6811 39.6371H30.0181C30.0307 40.1184 30.2334 40.4921 30.6261 40.7581C31.0314 41.0241 31.5824 41.1571 32.2791 41.1571C32.9124 41.1571 33.3937 41.0557 33.7231 40.8531C34.0651 40.6504 34.2361 40.3591 34.2361 39.9791C34.2361 39.6624 34.1094 39.4154 33.8561 39.2381C33.6154 39.0607 33.2734 38.9721 32.8301 38.9721H30.7021V37.2431H32.6211C33.0644 37.2431 33.4064 37.1607 33.6471 36.9961C33.8877 36.8187 34.0081 36.5717 34.0081 36.2551C34.0081 35.9257 33.8624 35.6724 33.5711 35.4951C33.2797 35.3177 32.8681 35.2291 32.3361 35.2291C31.7407 35.2291 31.2657 35.3431 30.9111 35.5711C30.5691 35.7864 30.3727 36.0967 30.3221 36.5021H28.0041C28.0547 35.4887 28.4727 34.6781 29.2581 34.0701C30.0434 33.4494 31.0694 33.1391 32.3361 33.1391C33.1467 33.1391 33.8624 33.2594 34.4831 33.5001C35.1164 33.7281 35.6041 34.0511 35.9461 34.4691C36.2881 34.8871 36.4591 35.3747 36.4591 35.9321C36.4591 36.7681 36.0474 37.4267 35.2241 37.9081V38.0601C35.6927 38.2374 36.0474 38.5161 36.2881 38.8961C36.5414 39.2634 36.6681 39.6941 36.6681 40.1881C36.6681 41.1127 36.2691 41.8537 35.4711 42.4111C34.6731 42.9684 33.6091 43.2471 32.2791 43.2471Z" fill="#121212"></path><path d="M42.7718 43.2471C41.8725 43.2471 41.0682 43.0317 40.3588 42.6011C39.6622 42.1704 39.1175 41.5751 38.7248 40.8151C38.3322 40.0424 38.1358 39.1684 38.1358 38.1931C38.1358 37.2177 38.3322 36.3501 38.7248 35.5901C39.1175 34.8174 39.6622 34.2157 40.3588 33.7851C41.0682 33.3544 41.8725 33.1391 42.7718 33.1391C43.4685 33.1391 44.1082 33.2847 44.6908 33.5761C45.2735 33.8547 45.7232 34.2791 46.0398 34.8491H46.1728V33.3861H48.5478V43.0001H46.1728V41.5371H46.0398C45.7232 42.1071 45.2735 42.5377 44.6908 42.8291C44.1208 43.1077 43.4812 43.2471 42.7718 43.2471ZM43.3988 41.0811C44.2475 41.0811 44.9188 40.8214 45.4128 40.3021C45.9195 39.7827 46.1728 39.0797 46.1728 38.1931C46.1728 37.3191 45.9195 36.6224 45.4128 36.1031C44.9188 35.5711 44.2475 35.3051 43.3988 35.3051C42.5502 35.3051 41.8725 35.5711 41.3658 36.1031C40.8592 36.6224 40.6058 37.3191 40.6058 38.1931C40.6058 39.0797 40.8592 39.7827 41.3658 40.3021C41.8725 40.8214 42.5502 41.0811 43.3988 41.0811Z" fill="#121212"></path><path d="M55.4598 43.2471C54.4718 43.2471 53.5852 43.0317 52.7998 42.6011C52.0272 42.1704 51.4192 41.5751 50.9758 40.8151C50.5452 40.0424 50.3298 39.1684 50.3298 38.1931C50.3298 37.2304 50.5452 36.3691 50.9758 35.6091C51.4192 34.8364 52.0335 34.2347 52.8188 33.8041C53.6042 33.3607 54.4908 33.1391 55.4788 33.1391C56.3908 33.1391 57.2142 33.3164 57.9488 33.6711C58.6835 34.0257 59.2662 34.5261 59.6968 35.1721C60.1402 35.8054 60.3935 36.5274 60.4568 37.3381H58.0628C57.9615 36.7301 57.6765 36.2424 57.2078 35.8751C56.7392 35.5077 56.1692 35.3241 55.4978 35.3241C54.6872 35.3241 54.0348 35.5901 53.5408 36.1221C53.0595 36.6414 52.8188 37.3317 52.8188 38.1931C52.8188 39.0544 53.0595 39.7511 53.5408 40.2831C54.0348 40.8024 54.6872 41.0621 55.4978 41.0621C56.1692 41.0621 56.7392 40.8784 57.2078 40.5111C57.6765 40.1311 57.9615 39.6307 58.0628 39.0101H60.4568C60.4062 39.8207 60.1592 40.5491 59.7158 41.1951C59.2725 41.8411 58.6772 42.3477 57.9298 42.7151C57.1952 43.0697 56.3718 43.2471 55.4598 43.2471Z" fill="#121212"></path><path d="M66.7654 43.0001H64.3904V35.5521H61.2364V33.3861H69.9194V35.5521H66.7654V43.0001Z" fill="#121212"></path><path d="M71.3551 46.8001V33.3861H73.7111V34.8491H73.8631C74.1798 34.2791 74.6231 33.8547 75.1931 33.5761C75.7758 33.2847 76.4154 33.1391 77.1121 33.1391C78.0114 33.1391 78.8158 33.3544 79.5251 33.7851C80.2344 34.2157 80.7854 34.8174 81.1781 35.5901C81.5708 36.3501 81.7671 37.2177 81.7671 38.1931C81.7671 39.1684 81.5708 40.0424 81.1781 40.8151C80.7854 41.5751 80.2344 42.1704 79.5251 42.6011C78.8158 43.0317 78.0114 43.2471 77.1121 43.2471C76.4154 43.2471 75.7758 43.1077 75.1931 42.8291C74.6231 42.5377 74.1798 42.1071 73.8631 41.5371H73.7111V46.8001H71.3551ZM76.4851 41.0811C77.3338 41.0811 78.0114 40.8214 78.5181 40.3021C79.0248 39.7701 79.2781 39.0671 79.2781 38.1931C79.2781 37.3064 79.0248 36.6034 78.5181 36.0841C78.0114 35.5647 77.3338 35.3051 76.4851 35.3051C75.6491 35.3051 74.9778 35.5647 74.4711 36.0841C73.9644 36.6034 73.7111 37.3064 73.7111 38.1931C73.7111 39.0671 73.9644 39.7701 74.4711 40.3021C74.9778 40.8214 75.6491 41.0811 76.4851 41.0811Z" fill="#121212"></path><path d="M88.2421 43.2471C87.2414 43.2471 86.3484 43.0317 85.5631 42.6011C84.7778 42.1704 84.1634 41.5751 83.7201 40.8151C83.2768 40.0424 83.0551 39.1684 83.0551 38.1931C83.0551 37.2177 83.2768 36.3501 83.7201 35.5901C84.1634 34.8174 84.7778 34.2157 85.5631 33.7851C86.3484 33.3544 87.2414 33.1391 88.2421 33.1391C89.2428 33.1391 90.1358 33.3544 90.9211 33.7851C91.7064 34.2157 92.3208 34.8174 92.7641 35.5901C93.2074 36.3501 93.4291 37.2177 93.4291 38.1931C93.4291 39.1684 93.2074 40.0424 92.7641 40.8151C92.3208 41.5751 91.7064 42.1704 90.9211 42.6011C90.1358 43.0317 89.2428 43.2471 88.2421 43.2471ZM88.2421 41.0621C89.0654 41.0621 89.7178 40.8024 90.1991 40.2831C90.6931 39.7637 90.9401 39.0671 90.9401 38.1931C90.9401 37.3317 90.6931 36.6414 90.1991 36.1221C89.7051 35.5901 89.0528 35.3241 88.2421 35.3241C87.4314 35.3241 86.7791 35.5901 86.2851 36.1221C85.7911 36.6414 85.5441 37.3317 85.5441 38.1931C85.5441 39.0671 85.7911 39.7637 86.2851 40.2831C86.7791 40.8024 87.4314 41.0621 88.2421 41.0621Z" fill="#121212"></path><path d="M98.1133 43.0001H95.2253V33.3861H97.5243V40.2071H97.6573L101.362 33.3861H104.25V43.0001H101.951V36.1791H101.799L98.1133 43.0001ZM99.6713 32.3411C98.6073 32.3411 97.7587 32.0814 97.1253 31.5621C96.492 31.0301 96.1753 30.2827 96.1753 29.3201H98.0753C98.1133 30.2827 98.6453 30.7641 99.6713 30.7641C100.697 30.7641 101.229 30.2827 101.267 29.3201H103.167C103.167 30.2827 102.851 31.0301 102.217 31.5621C101.584 32.0814 100.735 32.3411 99.6713 32.3411Z" fill="#121212"></path><path d="M121.805 45.7931H119.563V43.0001H106.567V33.3861H108.923V40.8341H112.191V33.3861H114.547V40.8341H117.815V33.3861H120.19V40.8341H121.805V45.7931Z" fill="#121212"></path><path d="M126.27 43.0001H123.382V33.3861H125.681V40.2071H125.814L129.519 33.3861H132.407V43.0001H130.108V36.1791H129.956L126.27 43.0001Z" fill="#121212"></path><path d="M137.079 43.0001H134.723V33.3861H137.079V37.0531H138.713L141.126 33.3861H143.653L140.575 37.9651L143.919 43.0001H141.24L138.732 39.2001H137.079V43.0001Z" fill="#121212"></path><path d="M152.7 43.0001H150.211V29.7001H152.7V35.0771H155.132L158.761 29.7001H161.478L157.146 36.0651L162.086 43.0001H159.084L155.113 37.3951H152.7V43.0001Z" fill="#121212"></path><path d="M169.457 33.3861H171.889L168.108 44.5771C167.829 45.4257 167.481 46.0084 167.063 46.3251C166.657 46.6417 166.075 46.8001 165.315 46.8001H163.377V44.7101H165.201C165.492 44.7101 165.695 44.6594 165.809 44.5581C165.935 44.4567 166.043 44.2667 166.132 43.9881L166.455 43.0001H165.467L161.857 33.3861H164.365L166.987 40.7581H167.139L169.457 33.3861Z" fill="#121212"></path><path d="M178.883 33.6521C179.719 33.6521 180.46 33.8547 181.106 34.2601C181.765 34.6527 182.271 35.2101 182.626 35.9321C182.993 36.6414 183.177 37.4521 183.177 38.3641C183.177 39.3267 182.962 40.1754 182.531 40.9101C182.1 41.6447 181.492 42.2211 180.707 42.6391C179.934 43.0444 179.041 43.2471 178.028 43.2471C176.369 43.2471 175.108 42.7277 174.247 41.6891C173.398 40.6504 172.974 39.1114 172.974 37.0721C172.974 34.3234 173.588 32.4297 174.817 31.3911C175.248 31.0237 175.767 30.7451 176.375 30.5551C176.996 30.3651 177.711 30.2447 178.522 30.1941C179.193 30.1687 179.675 30.0991 179.966 29.9851C180.27 29.8711 180.422 29.6937 180.422 29.4531H182.683C182.683 30.1877 182.563 30.7514 182.322 31.1441C182.081 31.5367 181.695 31.8154 181.163 31.9801C180.644 32.1321 179.896 32.2334 178.921 32.2841C178.275 32.3221 177.743 32.3981 177.325 32.5121C176.907 32.6134 176.552 32.7781 176.261 33.0061C175.97 33.2341 175.742 33.5444 175.577 33.9371C175.425 34.3171 175.324 34.8111 175.273 35.4191H175.425C175.767 34.8364 176.248 34.3994 176.869 34.1081C177.49 33.8041 178.161 33.6521 178.883 33.6521ZM178.066 41.0621C178.864 41.0621 179.497 40.8214 179.966 40.3401C180.447 39.8587 180.688 39.2191 180.688 38.4211C180.688 37.6231 180.447 36.9834 179.966 36.5021C179.497 36.0207 178.864 35.7801 178.066 35.7801C177.268 35.7801 176.628 36.0207 176.147 36.5021C175.678 36.9834 175.444 37.6231 175.444 38.4211C175.444 39.2191 175.678 39.8587 176.147 40.3401C176.628 40.8214 177.268 41.0621 178.066 41.0621Z" fill="#121212"></path></svg> 