<?xml version="1.0" encoding="UTF-8"?> <svg xmlns="http://www.w3.org/2000/svg" width="240" height="19" viewBox="0 0 240 19" fill="none"><g clip-path="url(#clip0_2056_1329)"><path d="M22.8375 1.44592C21.5372 0.921184 19.7468 0.658813 17.4598 0.658813C15.1139 0.658813 13.2713 0.921184 11.9383 1.43902C10.6052 1.95686 9.57935 2.79921 8.86057 3.95916L0 18.3757H8.02418L16.3816 3.93154C16.5254 3.68298 16.7083 3.50346 16.9305 3.38609C17.1527 3.26871 17.3944 3.21348 17.6558 3.21348C17.9172 3.21348 18.1589 3.26871 18.3811 3.37918C18.6033 3.48966 18.7862 3.66227 18.93 3.91083L27.307 18.3826H34.7497L25.9087 4.04201C25.1572 2.83373 24.1379 1.97067 22.8375 1.44592Z" fill="#121212"></path><path d="M37.2324 18.3761H65.4347V16.0354H44.4921V10.6292H65.4347V8.2886H44.4921V3.16546H65.4347V0.824829H37.2324V18.3761Z" fill="#121212"></path><path d="M148.303 18.2376H176.029V15.8901H155.439V10.4701H176.029V8.12254H155.439V2.9856H176.029V0.638062H148.303V18.2376Z" fill="#121212"></path><path d="M210.72 0.638062H201.702L194.286 5.98905C193.711 6.41023 193.195 6.75545 192.75 7.03854C192.306 7.31472 191.868 7.54256 191.45 7.71518C191.032 7.88779 190.6 8.00517 190.15 8.07421C189.705 8.14326 189.189 8.17778 188.614 8.17778H186.621V0.638062H179.486V18.0788H186.621V10.4977H188.614C189.189 10.4977 189.686 10.5184 190.097 10.5529C190.509 10.5944 190.908 10.6841 191.3 10.8291C191.692 10.9741 192.11 11.1881 192.554 11.4574C192.999 11.7267 193.541 12.0995 194.175 12.5621L201.742 18.0719H210.844L198.736 9.18583L210.72 0.638062Z" fill="#121212"></path><path d="M219.88 5.61621C220.01 4.96719 220.265 4.44935 220.638 4.0696C221.01 3.68985 221.539 3.42058 222.219 3.26178C222.899 3.10297 223.787 3.02012 224.885 3.02012H239.999V0.638062H224.885C222.539 0.638062 220.546 0.796866 218.9 1.11448C217.253 1.43208 215.92 1.90849 214.901 2.54371C213.881 3.17892 213.143 3.98675 212.679 4.96028C212.215 5.94072 211.986 7.07996 211.986 8.37801V10.7601C211.986 12.065 212.202 13.2043 212.633 14.1778C213.064 15.1582 213.783 15.9591 214.783 16.5944C215.789 17.2296 217.116 17.706 218.769 18.0236C220.422 18.3412 222.461 18.5 224.879 18.5H239.992V16.1318H225.094C223.951 16.1318 223.023 16.0558 222.304 15.8901C221.585 15.7313 221.036 15.4551 220.644 15.0685C220.259 14.6818 219.997 14.1571 219.867 13.508C219.736 12.859 219.671 12.0374 219.671 11.05V8.06731C219.684 7.08687 219.749 6.27214 219.88 5.61621Z" fill="#121212"></path><path d="M92.7035 8.14338H76.237V0.824606H68.9512V18.2446H76.2108L76.237 12.8177V10.698H92.7035V18.2446H99.9632L99.9958 0.748657H92.7166L92.7035 8.14338Z" fill="#121212"></path><path d="M143.225 16.2492H140.579L132.953 3.89011C132.208 2.68182 131.182 1.81185 129.882 1.28711C128.582 0.762371 126.791 0.5 124.504 0.5C122.159 0.5 120.316 0.762371 118.983 1.28021C117.65 1.79805 116.624 2.64039 115.905 3.80035L108.26 16.2423H105.685L105.679 16.2561H105.522C104.47 16.2561 103.621 17.1536 103.621 18.2653H145.127C145.127 17.1467 144.277 16.2492 143.225 16.2492ZM123.426 3.77273C123.57 3.52417 123.759 3.34465 123.975 3.22728C124.197 3.1099 124.439 3.05466 124.7 3.05466C124.962 3.05466 125.204 3.1099 125.426 3.22037C125.648 3.33084 125.831 3.50346 125.975 3.75202L133.215 16.2492L116.212 16.2423L123.426 3.77273Z" fill="#121212"></path></g><defs><clipPath id="clip0_2056_1329"><rect width="240" height="19" fill="white"></rect></clipPath></defs></svg> 