<?xml version="1.0" encoding="UTF-8"?> <svg xmlns="http://www.w3.org/2000/svg" width="215" height="44" viewBox="0 0 215 44" fill="none"><g clip-path="url(#clip0_2056_1140)"><path fill-rule="evenodd" clip-rule="evenodd" d="M15.623 31.7143L48.303 25.5714V19.5714L15.623 25.5714V31.7143Z" fill="#EE3A37"></path><path fill-rule="evenodd" clip-rule="evenodd" d="M15.623 19.7143L48.303 13.5715V7.42858L15.623 13.5715V19.7143Z" fill="#EE3A37"></path><path fill-rule="evenodd" clip-rule="evenodd" d="M15.623 7.57143L23.793 6V0L15.623 1.57143V7.57143Z" fill="#EE3A37"></path><path fill-rule="evenodd" clip-rule="evenodd" d="M15.623 43.8571L48.303 37.7143V31.7143L15.623 37.7143V43.8571Z" fill="#EE3A37"></path><path fill-rule="evenodd" clip-rule="evenodd" d="M15.6233 31.7143L0 25.5714V19.5714L15.6233 25.5714V31.7143Z" fill="#A91A19"></path><path fill-rule="evenodd" clip-rule="evenodd" d="M15.6233 19.7143L0 13.5715V7.42858L15.6233 13.5715V19.7143Z" fill="#A91A19"></path><path fill-rule="evenodd" clip-rule="evenodd" d="M15.6233 43.8571L0 37.7143V31.7143L15.6233 37.7143V43.8571Z" fill="#A91A19"></path><path fill-rule="evenodd" clip-rule="evenodd" d="M178.879 25H171.856V13.7142H178.879V25ZM186.906 7.2857C180.599 7.2857 174.722 7.14284 168.702 7.42855C165.692 7.57142 164.689 9.14284 164.259 12.1428C164.116 13.7142 164.116 15.4286 164.116 17C164.116 19.7143 164.116 22.4285 164.116 25C163.256 25.1429 162.539 25 161.822 25.1429V31.8572H189.199V25.2858C188.482 25.2858 187.766 25.2858 186.906 25.1429V7.2857Z" fill="#A91A19"></path><path fill-rule="evenodd" clip-rule="evenodd" d="M128.283 25H120.4V22.1429H128.283V25ZM132.727 16.8571C130.863 16.7143 128.857 16.5714 126.85 16.5714C124.7 16.5714 122.55 16.5714 120.4 16.5714V13.5715H135.307V7.28572H112.66V31.7143C119.11 31.7143 125.56 31.8572 132.01 31.7143C134.877 31.7143 136.597 29.8571 136.74 27C136.883 25 136.883 23 136.74 21C136.453 18.2857 135.307 17.1429 132.727 16.8571Z" fill="#A91A19"></path><path fill-rule="evenodd" clip-rule="evenodd" d="M102.196 25H93.8825V13.7143H102.196V25ZM105.349 7.42858C100.476 7.14287 95.6025 7.14287 90.7292 7.42858C87.7192 7.57144 86.4292 9.00002 86.2859 12.1428C85.9992 16.8572 85.8559 21.7143 86.1425 26.4286C86.2859 30.1429 88.0059 31.5714 91.7325 31.7143C96.1759 31.8572 100.476 31.8572 104.919 31.7143C107.786 31.5714 109.363 30.2858 109.793 27.4286C110.223 24.8571 109.936 22.2858 110.079 19.7143C110.079 17.5714 110.079 15.4286 110.079 13.2857C109.936 9.57144 108.646 7.57144 105.349 7.42858Z" fill="#A91A19"></path><path fill-rule="evenodd" clip-rule="evenodd" d="M59.627 31.8572H67.367V13.7143H75.5369C75.5369 14.7143 75.5369 15.5715 75.5369 16.4286C75.5369 18.4286 75.5369 20.5714 75.5369 22.5714V22.8572C75.5369 24.2857 75.5369 25.5714 75.5369 27V32H78.4035C80.1235 32 81.8435 32 83.5635 32V22.7143V7.28572H59.627V31.8572Z" fill="#A91A19"></path><path fill-rule="evenodd" clip-rule="evenodd" d="M147.204 22H159.244V16.5714H147.204V13.5715H160.104V7.28572H139.178V31.8572H160.104V25H147.204V22Z" fill="#A91A19"></path><path fill-rule="evenodd" clip-rule="evenodd" d="M207.117 16.8571H198.947V13.5715H207.117V16.8571ZM197.513 7.14284C192.927 7.14284 191.207 8.99999 191.207 13.5715C191.207 17.5714 191.207 21.7142 191.207 25.7143V31.7143H191.35H198.947V25.7143V22H207.26V31.7143H215V7.14284C208.98 7.14284 203.247 7.14284 197.513 7.14284Z" fill="#A91A19"></path><path fill-rule="evenodd" clip-rule="evenodd" d="M63.3525 38.2857H60.3424V43.8571H59.4824V37.7143H63.3525V38.2857ZM65.2158 41.2857V43.7142H64.4991V37.5714H66.9358C67.6525 37.5714 68.0824 37.7143 68.5124 38.1429C68.9424 38.4286 69.0858 39 69.0858 39.4285C69.0858 40.0001 68.9424 40.4286 68.5124 40.7142C68.0824 41 67.6525 41.2857 66.9358 41.2857H65.2158ZM65.2158 40.7142H66.7924C67.2224 40.7142 67.5091 40.5715 67.7958 40.4286C67.9391 40.1428 68.0824 39.8572 68.0824 39.5714C68.0824 39.2857 67.9391 39 67.7958 38.7143C67.6524 38.4286 67.2224 38.4286 66.7924 38.4286H65.2158V40.7142ZM71.8091 40.5715L72.0958 41.4285L73.5291 37.7143H74.5324L72.3824 42.8572C72.2391 43.2857 72.0958 43.5715 71.8091 43.7142C71.6658 43.8571 71.2358 44 70.8058 44C70.6625 44 70.6625 44 70.5191 44C70.3758 44 70.3758 44 70.3758 44V43.4286H70.5191C70.6625 43.4286 70.6624 43.4286 70.6624 43.4286C70.8058 43.4286 70.9491 43.4286 71.0924 43.2857C71.2358 43.1428 71.2358 43 71.3791 42.8572L71.5225 42.4286L69.3725 37.8571H70.3758L71.8091 40.5715ZM80.2658 43.8571H79.4058V38.2857H76.3958V43.8571H75.5358V37.7143H80.2658V43.8571ZM86.5725 43.8571H85.7124V38.2857H82.7025V43.8571H81.8424V37.7143H86.5725V43.8571ZM91.4458 42.2857H88.8658L88.2924 43.8571H87.4325L89.8691 37.7143H90.5858L93.0225 43.8571H92.1625L91.4458 42.2857ZM89.1525 41.5714H91.3025L90.2991 38.7143L89.1525 41.5714ZM97.4658 41H96.7491V43.8571H95.8891V37.7143H96.7491V40.4286H97.4658L99.7591 37.7143H100.763L98.3258 40.7142L100.906 43.8571H99.9024L97.4658 41ZM106.209 41.2857C106.209 42 105.922 42.7143 105.492 43.1428C105.062 43.7142 104.346 43.8571 103.629 43.8571C102.913 43.8571 102.339 43.5715 101.909 43.1428C101.479 42.5714 101.192 42 101.192 41.2857V40.1428C101.192 39.4285 101.479 38.7143 101.909 38.2857C102.339 37.7143 102.913 37.5714 103.629 37.5714C104.346 37.5714 105.062 37.8571 105.492 38.2857C105.922 38.8571 106.209 39.4285 106.209 40.1428V41.2857ZM105.349 40.1428C105.349 39.5714 105.206 39.1429 104.919 38.7143C104.632 38.2857 104.203 38.1429 103.629 38.1429C103.199 38.1429 102.769 38.2857 102.482 38.7143C102.196 39.1429 102.052 39.5714 102.052 40.1428V41.2857C102.052 41.8571 102.196 42.2857 102.482 42.7143C102.769 43.1428 103.199 43.2857 103.629 43.2857C104.203 43.2857 104.632 43.1428 104.919 42.7143C105.206 42.2857 105.349 41.8571 105.349 41.2857V40.1428ZM108.502 37.5714L110.509 42.5714L112.516 37.5714H113.663V43.7142H112.802V41.4285L112.946 38.8571L110.939 43.8571H110.366L108.359 38.8571L108.502 41.4285V43.8571H107.499V37.7143H108.502V37.5714ZM119.826 43.8571H118.966V38.2857H115.956V43.8571H115.096V37.7143H119.826V43.8571ZM124.842 42.2857H122.262L121.689 43.8571H120.829L123.266 37.7143H123.982L126.419 43.8571H125.559L124.842 42.2857ZM122.406 41.5714H124.556L123.552 38.7143L122.406 41.5714ZM131.866 43.8571H131.006V41.1429H127.996V43.8571H127.136V37.7143H127.996V40.5715H131.006V37.7143H131.866V43.8571ZM137.169 37.5714H138.029V43.7142H137.169V39L134.159 43.7142H133.299V37.5714H134.159V42.2857L137.169 37.5714ZM143.476 37.5714H144.336V43.7142H143.476V39L140.466 43.8571H139.606V37.7143H140.466V42.4286L143.476 37.5714ZM143.189 35.8571C143.189 36.1429 143.046 36.4285 142.902 36.7143C142.616 36.8572 142.329 36.9999 141.899 36.9999C141.469 36.9999 141.182 36.8572 140.896 36.7143C140.609 36.5714 140.609 36.2858 140.609 35.8571H141.326C141.326 36 141.326 36.1429 141.469 36.2858C141.612 36.4285 141.756 36.4285 141.899 36.4285C142.042 36.4285 142.186 36.4285 142.329 36.2858C142.472 36.1429 142.472 36 142.472 35.8571H143.189Z" fill="#1C2124"></path></g><defs><clipPath id="clip0_2056_1140"><rect width="215" height="44" fill="white"></rect></clipPath></defs></svg> 