<?xml version="1.0" encoding="UTF-8"?> <svg xmlns="http://www.w3.org/2000/svg" width="181" height="78" viewBox="0 0 181 78" fill="none"><g clip-path="url(#clip0_2056_810)"><path d="M33.6992 0L0 19.4965V58.5035L33.6992 78L67.4121 58.5035V19.4965L33.6992 0ZM62.3125 55.5541L33.6992 72.1704L5.0859 55.5541V22.4471L33.6992 5.83076L62.3125 22.4471V55.5541Z" fill="#087D3F"></path><path d="M33.6991 11.4375L9.89258 25.2152V52.7845L33.6979 66.5622L57.5318 52.7845V52.7707L52.4334 49.835L33.6979 60.6774L14.9773 49.8354V28.1647L33.6991 17.3223L52.4346 28.1647L57.533 25.229V25.2152L33.6991 11.4375Z" fill="#087D3F"></path><path d="M19.6602 30.8787V47.1213L33.6979 55.2496L47.736 47.1213L42.6376 44.1855L33.6979 49.3507L24.7586 44.1718V33.8297L33.6979 28.6508L42.6376 33.8144L47.736 30.8787L33.6979 22.7644L19.6602 30.8787Z" fill="#087D3F"></path><path d="M111.28 23.4155C110.161 21.8601 108.67 20.6121 106.944 19.7869C105.217 18.9616 103.311 18.5857 101.401 18.6938C95.1832 18.6938 91.1625 22.6112 91.1625 28.7052C91.1902 34.6179 95.3352 38.7731 101.401 38.7731C103.316 38.8803 105.228 38.4981 106.956 37.6625C108.683 36.8269 110.171 35.5652 111.28 33.9958L115.3 36.3635C112.385 40.8361 107.825 43.2869 101.484 43.2869C92.6549 43.2857 86.0918 37.7464 86.0918 28.719C86.0918 19.6915 92.8206 14.124 101.498 14.124C107.729 14.124 112.385 16.5889 115.315 21.1167L111.28 23.4155Z" fill="#020202"></path><path d="M143.832 23.4155C142.718 21.872 141.237 20.6317 139.524 19.8071C137.811 18.9826 135.919 18.5999 134.021 18.6938C127.803 18.6938 123.782 22.6112 123.782 28.7052C123.713 34.6179 127.887 38.7731 134.021 38.7731C135.936 38.8803 137.848 38.4981 139.576 37.6625C141.303 36.8269 142.791 35.5652 143.9 33.9958L147.907 36.3635C145.006 40.8349 140.433 43.2857 134.091 43.2857C125.262 43.2857 118.699 37.7464 118.699 28.719C118.699 19.6915 125.373 14.124 134.022 14.124C140.24 14.124 144.91 16.5889 147.839 21.1167L143.832 23.4155Z" fill="#020202"></path><path d="M157.428 14.7747V25.5336H167.1L174.423 14.7747H180.295L171.466 27.6941L181 42.5805H174.976L167.252 30.117H157.428V42.5793H152.357V14.7747H157.428Z" fill="#020202"></path><path d="M92.1723 51.9128C91.9045 51.5399 91.5484 51.2395 91.1359 51.0389C90.7235 50.8382 90.2677 50.7436 89.8097 50.7634C89.4825 50.7348 89.1529 50.7774 88.8436 50.8883C88.5344 50.9992 88.2526 51.1757 88.0178 51.4059C87.7829 51.636 87.6004 51.9143 87.4828 52.2217C87.3653 52.5291 87.3154 52.8583 87.3365 53.1868C87.3265 53.5125 87.384 53.8367 87.5055 54.139C87.627 54.4412 87.8097 54.7149 88.0422 54.9427C88.2747 55.1705 88.5518 55.3474 88.8561 55.4623C89.1603 55.5772 89.485 55.6275 89.8097 55.6101C90.2736 55.6332 90.7357 55.5387 91.1535 55.3354C91.5713 55.1321 91.9312 54.8266 92.2 54.447L93.1812 55.0147C92.8291 55.5847 92.3301 56.049 91.7367 56.3585C91.1433 56.668 90.4776 56.8113 89.8097 56.7732C89.3297 56.8028 88.8488 56.7336 88.3965 56.5699C87.9442 56.4062 87.5302 56.1514 87.1799 55.8212C86.8296 55.4911 86.5504 55.0926 86.3596 54.6502C86.1688 54.2078 86.0703 53.731 86.0703 53.2491C86.0703 52.7671 86.1688 52.2903 86.3596 51.848C86.5504 51.4056 86.8296 51.0071 87.1799 50.6769C87.5302 50.3468 87.9442 50.092 88.3965 49.9283C88.8488 49.7645 89.3297 49.6953 89.8097 49.7249C90.4643 49.6858 91.1175 49.8215 91.7026 50.1183C92.2877 50.4151 92.7836 50.8623 93.1397 51.4141L92.1723 51.9128Z" fill="#020202"></path><path d="M100.78 49.8491V50.9707H97.9337V56.5088H96.7176V50.9707H93.8438V49.8491H100.78Z" fill="#020202"></path><path d="M105.739 49.8491C106.095 49.8222 106.452 49.8697 106.789 49.9888C107.125 50.1079 107.433 50.2958 107.693 50.5407C107.953 50.7856 108.159 51.082 108.298 51.4111C108.438 51.7402 108.507 52.0948 108.502 52.4523C108.508 52.8087 108.438 53.1623 108.299 53.4902C108.159 53.8181 107.953 54.113 107.692 54.3557C107.432 54.5985 107.123 54.7837 106.787 54.8995C106.45 55.0152 106.093 55.0589 105.739 55.0276H102.976V56.5786H101.746V49.8491H105.739ZM102.976 53.8927H105.698C105.888 53.8927 106.077 53.8551 106.253 53.7821C106.429 53.709 106.589 53.6019 106.723 53.4669C106.858 53.3319 106.965 53.1716 107.038 52.9952C107.111 52.8188 107.148 52.6297 107.148 52.4388C107.148 52.2478 107.111 52.0588 107.038 51.8824C106.965 51.706 106.858 51.5457 106.723 51.4107C106.589 51.2756 106.429 51.1685 106.253 51.0955C106.077 51.0224 105.888 50.9848 105.698 50.9848H103.031L102.976 53.8927Z" fill="#020202"></path><path d="M113.146 56.7727C112.341 56.7154 111.581 56.3823 110.993 55.8294C110.405 55.2764 110.025 54.5374 109.917 53.7365C109.808 52.9357 109.979 52.1219 110.399 51.4321C110.819 50.7423 111.463 50.2185 112.223 49.9489C112.983 49.6792 113.813 49.6802 114.573 49.9515C115.332 50.2229 115.975 50.7482 116.394 51.4389C116.812 52.1297 116.981 52.9439 116.871 53.7445C116.761 54.5451 116.379 55.2832 115.79 55.8348C115.436 56.1643 115.02 56.4175 114.565 56.5788C114.11 56.7401 113.627 56.8061 113.146 56.7727ZM113.146 55.7064C113.63 55.6955 114.101 55.5413 114.498 55.2633C114.896 54.9853 115.202 54.5959 115.379 54.1438C115.557 53.6917 115.597 53.1973 115.495 52.7224C115.392 52.2476 115.153 51.8137 114.805 51.475C114.458 51.1364 114.018 50.9082 113.542 50.8191C113.065 50.73 112.573 50.7839 112.127 50.9741C111.681 51.1643 111.301 51.4824 111.035 51.8883C110.769 52.2942 110.628 52.7699 110.631 53.2556C110.628 53.581 110.693 53.9034 110.82 54.2027C110.947 54.502 111.135 54.7719 111.371 54.9954C111.607 55.2189 111.886 55.3912 112.191 55.5017C112.497 55.6122 112.822 55.6584 113.146 55.6374V55.7064Z" fill="#020202"></path><path d="M119.281 49.8491V54.945L123.757 49.8491H124.987V56.5789H123.757V51.4831L119.294 56.5366H118.051V49.8491H119.281Z" fill="#020202"></path><path d="M132.946 49.8491V50.9707H130.086V56.5088H128.856V50.9707H125.996V49.8491H132.946Z" fill="#020202"></path><path d="M139.965 49.8491V50.9707H135.184V52.6184H139.55V53.7274H135.184V55.3892H140.144V56.5253H134.023V49.8491H139.965Z" fill="#020202"></path><path d="M148.447 49.8491V56.579H147.218V51.0401H144.22L143.473 54.9865C143.424 55.4666 143.19 55.9087 142.822 56.219C142.453 56.5292 141.978 56.6832 141.497 56.6483H140.807V55.3881H141.414C141.618 55.4115 141.822 55.3532 141.983 55.226C142.143 55.0989 142.247 54.9132 142.271 54.7095L143.197 49.8076L148.447 49.8491Z" fill="#020202"></path><path d="M150.976 49.8491V51.4694H153.532C153.884 51.4344 154.239 51.474 154.574 51.5857C154.909 51.6975 155.217 51.8788 155.478 52.1179C155.739 52.3569 155.946 52.6484 156.087 52.9733C156.228 53.2981 156.299 53.6491 156.295 54.0032C156.298 54.359 156.227 54.7115 156.087 55.0384C155.947 55.3652 155.74 55.6591 155.48 55.9014C155.22 56.1438 154.913 56.3292 154.577 56.4458C154.242 56.5625 153.886 56.6078 153.532 56.5789H149.746V49.8491H150.976ZM150.976 55.388H153.435C154.43 55.388 155.011 54.8897 155.011 54.0032C155.011 53.1167 154.43 52.6184 153.435 52.6184H150.976V55.388Z" fill="#020202"></path><path d="M158.534 49.8491V52.5353H162.845V49.8491H164.077V56.5789H162.847V53.6017H158.534V56.5374H157.291V49.8491H158.534Z" fill="#020202"></path><path d="M170.388 49.8491L173.25 56.5789H171.951L171.482 55.5267H166.908L166.448 56.5789H165.068L168.067 49.8491H170.388ZM167.376 54.4326H170.983L169.601 50.957H168.827L167.376 54.4326Z" fill="#020202"></path><path d="M180.737 56.5373H179.493V54.9586H176.578L175.707 56.5373H174.326L175.375 54.6679C174.949 54.4695 174.591 54.1495 174.345 53.748C174.099 53.3465 173.977 52.8814 173.994 52.4106C173.991 52.047 174.066 51.687 174.213 51.3545C174.36 51.022 174.576 50.7247 174.846 50.4824C175.117 50.2401 175.436 50.0583 175.782 49.949C176.128 49.8398 176.494 49.8057 176.854 49.849H180.805L180.737 56.5373ZM176.841 50.9984C176.642 50.9795 176.442 51.0023 176.253 51.0653C176.064 51.1284 175.891 51.2303 175.743 51.3646C175.596 51.4988 175.478 51.6625 175.398 51.845C175.317 52.0276 175.275 52.225 175.275 52.4246C175.275 52.6242 175.317 52.8215 175.398 53.0041C175.478 53.1866 175.596 53.3503 175.743 53.4845C175.891 53.6188 176.064 53.7207 176.253 53.7838C176.442 53.8469 176.642 53.8697 176.841 53.8507H179.493V50.9432L176.841 50.9984Z" fill="#020202"></path><path d="M87.4602 61.2869V63.89H89.8091L91.5775 61.2869H92.9597L90.8176 64.4024L93.1238 68.0167H91.7155L89.8087 65.0809H87.4602V68.0856H86.2441V61.2869H87.4602Z" fill="#020202"></path><path d="M97.2147 68.1965C96.402 68.1487 95.6307 67.8215 95.0308 67.27C94.4309 66.7184 94.0392 65.9764 93.9218 65.1691C93.8043 64.3618 93.9683 63.5386 94.3861 62.8384C94.8039 62.1382 95.4499 61.6038 96.2152 61.3255C96.9804 61.0471 97.818 61.0418 98.5867 61.3105C99.3553 61.5791 100.008 62.1053 100.435 62.8001C100.861 63.495 101.036 64.3161 100.928 65.1248C100.821 65.9335 100.439 66.6804 99.8458 67.2395C99.4958 67.5707 99.0817 67.8265 98.6292 67.9911C98.1766 68.1557 97.6953 68.2256 97.2147 68.1965ZM97.2147 67.1165C97.6993 67.1056 98.1698 66.9515 98.5672 66.6735C98.9647 66.3955 99.2713 66.006 99.4486 65.5539C99.6259 65.1019 99.666 64.6074 99.5638 64.1326C99.4616 63.6578 99.2217 63.2238 98.8743 62.8852C98.5268 62.5465 98.0873 62.3183 97.6108 62.2292C97.1344 62.1401 96.6423 62.194 96.1963 62.3843C95.7504 62.5745 95.3705 62.8925 95.1043 63.2984C94.8381 63.7043 94.6975 64.18 94.7001 64.6657C94.6878 64.9968 94.745 65.3268 94.8679 65.6344C94.9909 65.9419 95.1769 66.2202 95.4139 66.4512C95.6509 66.6822 95.9337 66.8608 96.2439 66.9754C96.5541 67.09 96.8848 67.1381 97.2147 67.1165Z" fill="#020202"></path><path d="M103.916 61.2869L106.541 66.5755L109.18 61.2869H110.935V68.0167H109.705V62.8237H109.581L107.041 68.0163H105.933L103.392 62.8237H103.253V68.0167H102.064V61.2869H103.916Z" fill="#020202"></path><path d="M118.825 61.2869V68.0167H117.595V62.3947H113.452V68.0167H112.221V61.2869H118.825Z" fill="#020202"></path><path d="M125.167 61.2869L128.013 68.0167H126.714L126.245 66.9645H121.672L121.216 68.0167H119.834L122.777 61.2869H125.167ZM122.141 65.8703H125.734L124.352 62.3947H123.592L122.141 65.8703Z" fill="#020202"></path><path d="M130.292 61.2869V63.9731H134.603V61.2869H135.833V68.0167H134.603V65.0809H130.292V68.0014H129.062V61.2869H130.292Z" fill="#020202"></path><path d="M138.362 61.2869V66.3827L142.837 61.2869H144.067V68.0167H142.837V62.9632L138.374 68.0167H137.131V61.2869H138.362Z" fill="#020202"></path><path d="M151.805 68.0158H150.603V66.4653H147.675L146.818 68.044H145.437L146.487 66.1746C146.061 65.9747 145.704 65.6545 145.458 65.2533C145.213 64.8522 145.09 64.3878 145.105 63.9174C145.1 63.5599 145.169 63.2053 145.309 62.8762C145.448 62.5471 145.654 62.2507 145.914 62.0058C146.174 61.7609 146.482 61.573 146.818 61.4539C147.155 61.3348 147.512 61.2873 147.868 61.3142H151.834L151.805 68.0158ZM147.909 62.4777C147.71 62.4564 147.508 62.4775 147.317 62.5395C147.126 62.6015 146.95 62.703 146.801 62.8375C146.652 62.972 146.533 63.1364 146.451 63.3201C146.369 63.5039 146.327 63.7027 146.327 63.9039C146.327 64.105 146.369 64.3039 146.451 64.4876C146.533 64.6713 146.652 64.8357 146.801 64.9702C146.95 65.1047 147.126 65.2062 147.317 65.2682C147.508 65.3302 147.71 65.3513 147.909 65.33H150.604V62.4221L147.909 62.4777Z" fill="#020202"></path></g><defs><clipPath id="clip0_2056_810"><rect width="181" height="78" fill="white"></rect></clipPath></defs></svg> 