<?xml version="1.0" encoding="UTF-8"?> <svg xmlns="http://www.w3.org/2000/svg" width="191" height="38" viewBox="0 0 191 38" fill="none"><g clip-path="url(#clip0_2056_960)"><mask id="mask0_2056_960" style="mask-type:luminance" maskUnits="userSpaceOnUse" x="0" y="0" width="191" height="38"><path d="M191 0H0V38H191V0Z" fill="white"></path></mask><g mask="url(#mask0_2056_960)"><path d="M141.495 1.02234V15.5034H125.186V1.02234H115.949V15.5034V25.0525V36.9777H125.186V25.0525H141.495V36.9777H150.731V25.0525V15.5034V1.02234H141.495Z" fill="#1F1F1F"></path><path d="M102.096 1.02234V15.5034H89.0315V1.02234H79.7949V25.0525H102.096V36.9777H111.333V25.0525V15.5034V1.02234H102.096Z" fill="#1F1F1F"></path><path d="M34.7846 1.02234H22.0092H12.7726H0V10.5714H12.7726V36.9777H22.0092V10.5714H34.7846V1.02234Z" fill="#1F1F1F"></path><path d="M56.7924 0C46.6414 0 38.4141 8.50738 38.4141 18.9986C38.4141 29.4899 46.6414 38 56.7924 38C66.9434 38 75.1736 29.4926 75.1736 18.9986C75.1736 8.50462 66.9434 0 56.7924 0ZM56.7924 9.90548C58.5587 9.88301 60.2915 10.3974 61.7708 11.3832C63.25 12.3691 64.4088 13.7818 65.0999 15.4419C65.791 17.1021 65.9832 18.9346 65.6519 20.7065C65.3206 22.4784 64.4809 24.1097 63.2396 25.393C61.9983 26.6763 60.4114 27.5538 58.6804 27.9137C56.9497 28.2736 55.1531 28.0999 53.5193 27.4145C51.8853 26.729 50.488 25.5629 49.5046 24.0643C48.5213 22.5658 47.9965 20.8025 47.9969 18.9986C47.986 16.6027 48.9059 14.3002 50.5545 12.5956C52.2033 10.8911 54.4464 9.92373 56.7924 9.90548Z" fill="#1F1F1F"></path><path d="M172.621 0C162.469 0 154.242 8.50738 154.242 18.9986C154.242 29.4899 162.469 38 172.621 38C182.773 38 191.001 29.4926 191.001 18.9986C191.001 8.50462 182.773 0 172.621 0ZM172.621 9.90548C174.388 9.88301 176.119 10.3974 177.6 11.3832C179.078 12.3691 180.237 13.7818 180.928 15.4419C181.619 17.1021 181.811 18.9346 181.48 20.7065C181.149 22.4784 180.309 24.1097 179.067 25.393C177.827 26.6763 176.24 27.5538 174.509 27.9137C172.778 28.2736 170.981 28.0999 169.347 27.4145C167.714 26.729 166.316 25.5629 165.333 24.0643C164.349 22.5658 163.825 20.8025 163.825 18.9986C163.814 16.6027 164.734 14.3002 166.383 12.5956C168.032 10.8911 170.275 9.92373 172.621 9.90548Z" fill="#1F1F1F"></path></g></g><defs><clipPath id="clip0_2056_960"><rect width="191" height="38" fill="white"></rect></clipPath></defs></svg> 