<?xml version="1.0" encoding="UTF-8"?> <svg xmlns="http://www.w3.org/2000/svg" width="237" height="49" viewBox="0 0 237 49" fill="none"><g clip-path="url(#clip0_2422_576)"><path d="M164.257 41.6987L163.785 40.7219C161.667 41.6354 159.424 42.0771 157.056 42.0771C151.18 42.0771 146.535 39.2082 146.535 32.2718C146.535 25.2404 151.305 22.4032 157.371 22.4032C160.15 22.4032 162.743 22.9699 165.142 24.0735L164.416 26.3757C162.266 25.3988 159.835 24.862 157.435 24.862C152.79 24.862 149.189 26.9741 149.189 32.2718C149.189 37.5679 152.695 39.6817 157.151 39.6817C159.203 39.6817 161.319 39.2399 163.31 38.3881V33.312H155.603V31.1683H165.647V41.6987H164.257Z" fill="black"></path><path d="M170.442 41.6987V30.9781C170.442 29.4029 170.19 27.9843 169.652 26.7223H171.927C172.275 27.5108 172.433 28.456 172.528 29.4346L172.338 30.5065L172.37 30.5381C173.221 28.1093 175.087 26.5023 177.519 26.5023C178.025 26.5023 178.877 26.5639 179.665 26.7857L179.097 28.7394C178.624 28.7094 178.275 28.6461 177.612 28.6461C175.433 28.6461 172.781 30.5681 172.781 34.2255V41.6987H170.442Z" fill="black"></path><path d="M188.698 28.4881C185.284 28.4881 182.504 30.1285 182.504 34.1942C182.504 38.3251 185.317 39.9338 188.698 39.9338C192.11 39.9338 194.857 38.3251 194.857 34.1942C194.857 30.1285 192.076 28.4881 188.698 28.4881ZM188.698 42.0775C183.958 42.0775 180.168 39.7754 180.168 34.1942C180.168 28.6448 183.958 26.3444 188.698 26.3444C193.404 26.3444 197.194 28.6448 197.194 34.1942C197.194 39.7754 193.404 42.0775 188.698 42.0775Z" fill="black"></path><path d="M214.312 41.6988C213.965 40.9102 213.806 39.9651 213.711 38.9883L213.901 37.9164L213.87 37.8847C212.859 40.7835 210.173 42.0772 207.077 42.0772C203.099 42.0772 200.35 39.9651 200.35 35.014V26.7224H202.686V35.014C202.686 38.5148 204.55 39.9334 207.426 39.9334C210.457 39.9334 213.459 38.3247 213.459 34.1939V26.7224H215.797V37.4429C215.797 39.0199 216.047 40.4368 216.585 41.6988H214.312Z" fill="black"></path><path d="M222.742 38.0733C224.226 39.3652 226.374 39.9337 228.427 39.9337C231.839 39.9337 234.334 38.295 234.334 34.2258C234.334 30.0967 231.742 28.488 228.554 28.488C225.362 28.488 222.742 30.0967 222.742 34.2258V38.0733ZM220.403 48.8888V30.9785C220.403 29.4032 220.149 27.9846 219.613 26.7227H221.888C222.235 27.5112 222.394 28.4563 222.489 29.4349L222.299 30.5068L222.331 30.5385C223.341 27.6361 225.995 26.3442 229.122 26.3442C233.26 26.3442 236.671 28.6147 236.671 34.1642C236.671 39.8386 233.04 42.0774 228.49 42.0774C225.995 42.0774 223.657 41.4156 221.888 40.0287L222.742 41.1323V48.8888H220.403Z" fill="black"></path><path d="M37.9482 23.7785L29.8666 8.34632H26.7754L18.7625 23.7785H37.9482ZM34.9963 0.00012207L56.642 41.666H47.2255L42.2351 32.1265H14.4052L9.41653 41.666H0L21.6439 0.00012207H34.9963Z" fill="black"></path><path d="M91.4275 21.6044L92.9034 20.3425V9.95988L91.1453 8.34766H67.604V21.6044H91.4275ZM91.6391 29.9524L102.04 41.6656H90.8649L80.535 29.9524H67.604V41.6656H59.2402V0.00146484H94.3794L101.267 6.24263V24.2005L94.4499 29.9524H91.6391Z" fill="black"></path><path d="M148.351 0.000244141V8.34644H131.555V41.6644H123.191V8.34644H106.467V0.000244141H148.351Z" fill="black"></path></g><defs><clipPath id="clip0_2422_576"><rect width="237" height="49" fill="white"></rect></clipPath></defs></svg> 