<?xml version="1.0" encoding="UTF-8"?> <svg xmlns="http://www.w3.org/2000/svg" width="202" height="51" viewBox="0 0 202 51" fill="none"><g clip-path="url(#clip0_2056_915)"><mask id="mask0_2056_915" style="mask-type:luminance" maskUnits="userSpaceOnUse" x="0" y="0" width="202" height="51"><path d="M0 0H202V51H0V0Z" fill="white"></path></mask><g mask="url(#mask0_2056_915)"><path d="M0 50.4901L21.1932 1.2751H29.3714L50.5645 50.4901H39.4658L35.5464 41.3498H15.0139L11.0946 50.4887L0 50.4901ZM25.2865 17.4081L18.9656 32.14H31.6018L25.2865 17.4081ZM91.2647 1.2751L69.4768 50.4901H61.9579L39.0533 1.2751H50.9573L65.7805 33.7862L79.6399 1.27368H91.2661L91.2647 1.2751ZM79.5038 50.4901L100.697 1.2751H108.875L130.066 50.4901H118.97L115.05 41.3498H94.5192L90.6026 50.4887L79.5038 50.4901ZM104.792 17.4081L98.4694 32.14H111.104L104.792 17.4081ZM138.418 4.15377L137.98 6.2476L137.708 6.30002C136.954 5.80927 136.145 5.41299 135.297 5.11993C134.54 4.88013 133.752 4.76064 132.959 4.76577C129.018 4.76577 127.047 7.2251 127.047 12.1423C127.047 14.5082 127.505 16.2478 128.421 17.3585C129.34 18.4692 130.763 19.0245 132.689 19.0245C133.205 19.0245 133.721 18.9778 134.229 18.8871C134.907 18.7539 135.576 18.5783 136.231 18.3629L136.287 16.2988L136.259 13.6582L138.304 13.491L138.248 15.9957L138.357 19.8504C137.329 20.1791 136.281 20.4454 135.224 20.648C134.351 20.8095 133.466 20.8931 132.579 20.8959C129.981 20.8959 128.034 20.1536 126.738 18.6675C125.442 17.1814 124.793 15.0352 124.79 12.2259C124.79 9.1971 125.526 6.88935 126.996 5.30268C128.466 3.71602 130.565 2.92268 133.293 2.92268C135.075 2.908 136.834 3.33098 138.418 4.15518V4.15377ZM154.143 20.1734L154.116 20.4483C153.468 20.7033 152.791 20.869 152.099 20.9441L151.8 20.75C150.377 18.6038 149.04 16.4 147.794 14.1441H144.604V15.1896L144.713 20.6948H142.504L142.643 15.3851L142.504 3.05585L147.849 3.02752C149.554 3.02752 150.877 3.46385 151.814 4.3351C152.75 5.20635 153.218 6.45018 153.216 8.06377C153.232 9.22092 152.907 10.3569 152.281 11.3263C151.657 12.2897 150.772 13.0363 149.624 13.5675C151.013 15.8486 152.521 18.0547 154.143 20.1734ZM144.632 12.2741L147.903 12.3563C149.937 11.7683 150.954 10.4013 150.956 8.25643C150.956 7.13727 150.656 6.29576 150.057 5.73477C149.456 5.17518 148.557 4.87768 147.358 4.84227L144.713 4.92443L144.632 12.2741ZM169.063 5.1171C170.341 6.6046 170.98 8.74376 170.98 11.5303C170.98 14.5393 170.299 16.857 168.938 18.4805C167.576 20.1054 165.632 20.9172 163.104 20.9172C160.742 20.9172 158.919 20.1465 157.639 18.6038C156.359 17.0624 155.718 14.8694 155.718 12.0262C155.718 9.09085 156.396 6.83268 157.749 5.25452C159.103 3.67635 161.033 2.88727 163.54 2.88868C165.942 2.88868 167.782 3.63102 169.063 5.1171ZM157.957 11.7783C157.957 14.2943 158.397 16.1572 159.278 17.3656C160.159 18.574 161.489 19.1789 163.269 19.1818C166.904 19.1818 168.721 16.7692 168.721 11.9426C168.721 9.48468 168.28 7.6586 167.398 6.46435C166.517 5.27152 165.186 4.6751 163.404 4.67652C159.772 4.67652 157.957 7.04235 157.957 11.7783ZM186.874 12.0262L186.846 14.0081C186.882 16.1728 186.318 17.8614 185.155 19.0727C183.991 20.2853 182.337 20.8903 180.194 20.8888C178.142 20.8888 176.565 20.3108 175.466 19.1548C174.367 17.9988 173.836 16.3654 173.872 14.256L173.9 11.8618L173.872 3.05302H176.025L175.943 13.9798C175.924 15.6316 176.287 16.874 177.033 17.7099C177.778 18.5443 178.886 18.9622 180.358 18.9622C181.829 18.9622 182.947 18.5698 183.711 17.7821C184.474 16.9958 184.847 15.8214 184.829 14.2588L184.719 3.05018H186.899L186.874 12.0262ZM200.608 4.3606C201.536 5.25027 202 6.52952 201.999 8.19977C201.999 10.1675 201.422 11.7088 200.269 12.8238C199.115 13.9401 197.521 14.4997 195.486 14.5025H193.411V15.191L193.519 20.6962H191.311L191.448 15.3865L191.311 3.05585L196.654 3.02893C198.364 3.02752 199.683 3.47093 200.608 4.3606ZM198.879 11.3391C199.468 10.6024 199.764 9.62068 199.765 8.3896C199.765 6.11443 198.566 4.93152 196.167 4.83943L193.523 4.92018L193.442 12.6552L196.303 12.7104C197.43 12.5305 198.288 12.0729 198.879 11.3391Z" fill="black"></path></g></g><defs><clipPath id="clip0_2056_915"><rect width="202" height="51" fill="white"></rect></clipPath></defs></svg> 