<?xml version="1.0" encoding="UTF-8"?> <svg xmlns="http://www.w3.org/2000/svg" width="112" height="194" viewBox="0 0 112 194" fill="none"><g clip-path="url(#clip0_2056_1382)"><g clip-path="url(#clip1_2056_1382)"><path d="M110.45 170.859H0.550781V0H110.45V170.859ZM2.23022 169.174H108.765V1.68505H2.23584V169.174H2.23022Z" fill="#121212"></path><path d="M42.2617 74.9902H55.7646C62.3363 74.9902 64.4595 80.0342 64.4595 82.0225C64.4595 83.6907 63.9933 85.123 63.0609 86.3194C62.4374 87.117 61.5331 88.3078 60.3367 88.7684C63.3642 89.0323 68.1835 94.037 65.2796 99.1483C64.628 100.294 63.836 101.243 62.7801 101.923C62.1229 102.344 61.1343 102.653 59.8144 102.85C58.0563 103.108 56.888 103.237 56.3151 103.237H42.2673V74.9959L42.2617 74.9902ZM48.4065 85.6903H52.9113C54.5289 85.6903 55.6523 85.4376 56.2814 84.9321C56.9161 84.4265 57.2306 83.702 57.2306 82.7471C57.2306 81.8653 56.9161 81.1744 56.2814 80.6801C55.6467 80.1858 54.5458 79.9331 52.9787 79.9331H48.4065V85.6847V85.6903ZM48.4065 97.6093H53.6864C55.4669 97.6093 56.7251 97.3228 57.4609 96.7499C58.1911 96.177 58.5562 95.4075 58.5562 94.4414C58.5562 93.5427 58.1967 92.8237 57.4721 92.2789C56.7476 91.7341 55.4782 91.4644 53.6639 91.4644H48.4065V97.6093Z" fill="#121212"></path><path d="M67.7422 74.9902H87.3394V79.8937H74.297V85.505H84.7949V90.1445H74.297V96.8341H87.6876V103.232H67.7422V74.9902Z" fill="#121212"></path><path d="M91.5156 74.9902H98.0536V96.8341H109.141V103.232H91.5156V74.9902Z" fill="#121212"></path><path d="M66.1757 169.815C42.6916 169.815 21.8532 156.638 10.4285 134.575C4.00282 122.167 1.20563 107.951 2.34023 93.4651C3.57032 77.7436 9.51294 61.9434 19.5278 47.7777C36.9007 23.2096 60.4577 11.6782 77.1622 6.33662C95.2485 0.54565 109.049 0.562501 109.616 0.562501L109.6 3.37092C109.453 3.37654 95.6023 3.36531 77.9205 9.03832C61.6541 14.2564 38.7205 25.4957 21.8194 49.3954C11.9563 63.3476 6.34504 78.2435 5.13742 93.6786C4.04775 107.642 6.73822 121.336 12.9224 133.283C23.8527 154.402 43.7588 167.006 66.1757 167.006C81.2681 167.006 90.7662 159.952 96.0741 154.037C102.578 146.786 106.46 136.968 106.46 127.773C106.46 111.282 95.5125 105.407 85.2673 105.407C69.602 105.407 69.147 117.589 69.147 118.982C69.147 121.072 71.3263 126.206 76.7297 126.492C78.3867 126.582 79.7516 126.133 80.7907 125.167C81.959 124.077 82.3578 122.656 82.3634 122.139C82.3747 121.409 82.1724 120.864 81.7568 120.51C81.0996 119.954 79.8471 119.797 78.3081 120.078L77.8025 117.314C80.2403 116.865 82.2342 117.23 83.571 118.365C84.6439 119.275 85.1943 120.594 85.1718 122.184C85.1494 123.566 84.3799 125.661 82.706 127.217C81.1109 128.705 78.9933 129.424 76.5781 129.289C69.4278 128.907 66.3386 122.274 66.3386 118.977C66.3386 112.894 70.3265 102.593 85.2673 102.593C92.8725 102.593 99.1409 105.204 103.393 110.147C107.24 114.618 109.268 120.712 109.268 127.767C109.268 147.982 92.7939 169.809 66.1757 169.809" fill="#121212"></path><path d="M1.98681 0.240601L0.804688 1.44144L33.5114 33.6384L34.6935 32.4375L1.98681 0.240601Z" fill="#121212"></path><path d="M109.595 102.048L1.375 103.162L1.39235 104.847L109.612 103.733L109.595 102.048Z" fill="#121212"></path><path d="M67.4664 103.445H65.7812V170.022H67.4664V103.445Z" fill="#121212"></path><path d="M85.6929 103.445H84.0078V128.182H85.6929V103.445Z" fill="#121212"></path><path d="M108.478 102.852L84 127.33L85.1915 128.522L109.669 104.044L108.478 102.852Z" fill="#121212"></path><path d="M67.9806 127.982L66.7891 129.174L107.956 170.341L109.147 169.149L67.9806 127.982Z" fill="#121212"></path><path d="M66.0358 103.411L0.820312 168.627L2.01183 169.818L67.2273 104.603L66.0358 103.411Z" fill="#121212"></path><path d="M78.3882 117.977H76.7031V128.177H78.3882V117.977Z" fill="#121212"></path><path d="M85.2016 117.133H66.6211V118.818H85.2016V117.133Z" fill="#121212"></path><path d="M107.854 127.738H66.6211V129.423H107.854V127.738Z" fill="#121212"></path><path d="M10.4192 187.007C10.4192 188.569 9.91373 189.866 8.9027 190.911C7.67261 192.18 5.85275 192.815 3.44874 192.815H0V181.205H3.44874C5.7011 181.205 7.45355 181.778 8.70611 182.929C9.85195 183.98 10.4192 185.339 10.4192 187.002M8.77351 187.002C8.8353 185.569 8.31293 183.89 7.39177 183.092C6.44814 182.284 5.10571 181.873 3.35887 181.873H1.55025V192.113H3.31394C5.2012 192.113 8.59377 191.192 8.7679 186.996" fill="#121212"></path><path d="M18.3738 192.815H12.2852V181.205H18.3738V182.278H13.6107V186.142H17.9301V187.097H13.6107V191.664H18.3738V192.815Z" fill="#121212"></path><path d="M36.8738 192.815H30.7852V181.205H36.8738V182.278H32.1107V186.142H36.4301V187.097H32.1107V191.664H36.8738V192.815Z" fill="#121212"></path><path d="M89.3482 192.815H83.2539V181.205H89.3482V182.278H84.5795V186.142H88.8988V187.097H84.5795V191.664H89.3482V192.815Z" fill="#121212"></path><path d="M29.9623 181.205L25.0532 193.236L20.1328 181.205H21.2674L25.2666 190.889L29.0243 181.205H29.9623Z" fill="#121212"></path><path d="M44.9595 192.815H39V181.205H40.4323V191.63H44.9595V192.815Z" fill="#121212"></path><path d="M58.3248 187.008C58.3248 188.8 57.7294 190.277 56.5442 191.445C55.3816 192.591 53.938 193.164 52.2193 193.164C50.5005 193.164 49.057 192.591 47.8999 191.445C46.7148 190.277 46.125 188.8 46.125 187.008C46.125 185.216 46.7148 183.739 47.8999 182.571C49.057 181.43 50.4949 180.857 52.2193 180.857C53.9436 180.857 55.3816 181.43 56.5442 182.571C57.735 183.739 58.3248 185.216 58.3248 187.008ZM57.0722 187.008C57.0722 185.581 56.5218 181.571 52.2193 181.571C47.9168 181.571 47.3439 185.581 47.3439 187.008C47.3439 188.435 48.7087 192.451 52.2193 192.451C55.7298 192.451 57.0722 188.429 57.0722 187.013" fill="#121212"></path><path d="M67.1356 184.328C67.1356 186.451 65.6471 187.513 63.2712 187.513H61.4345V192.821H60.0078V181.211H63.2768C65.6471 181.211 67.1412 182.25 67.1412 184.334M65.9392 184.334C65.9392 182.475 64.6473 181.874 63.1869 181.874H61.4401V186.676H63.1869C64.6473 186.676 65.9392 185.643 65.9392 184.334Z" fill="#121212"></path><path d="M81.363 192.815H79.9756L78.6781 184.35L74.5891 192.472L70.3427 184.423L69.3935 192.815H68.2812L70.0619 180.789L74.8137 190.506L79.5768 180.789L81.363 192.815Z" fill="#121212"></path><path d="M101.271 193.23L92.5647 183.659L92.7725 192.814H91.6211V180.783L100.209 189.759V181.204H101.271V193.23Z" fill="#121212"></path><path d="M111.001 182.222L107.771 182.115V192.815H106.333V182.115L103.109 182.222V181.205H111.001V182.222Z" fill="#121212"></path></g></g><defs><clipPath id="clip0_2056_1382"><rect width="112" height="194" fill="white"></rect></clipPath><clipPath id="clip1_2056_1382"><rect width="112" height="194" fill="white"></rect></clipPath></defs></svg> 