<?xml version="1.0" encoding="UTF-8"?> <svg xmlns="http://www.w3.org/2000/svg" width="252" height="21" viewBox="0 0 252 21" fill="none"><path d="M232.137 2.81398C233.481 3.41913 234.618 4.40656 235.405 5.65318C236.196 6.95515 236.598 8.45615 236.564 9.97918V10.1976C236.601 11.7182 236.197 13.2171 235.405 14.5152C234.618 15.7594 233.481 16.744 232.137 17.346C230.579 18.0411 228.887 18.3825 227.181 18.3456C225.637 18.3617 224.106 18.0764 222.671 17.5056C221.419 17.0248 220.31 16.2361 219.445 15.2124C218.612 14.1957 218.067 12.9746 217.866 11.676H215.052V18.018H211.406V2.05798H215.052V8.39998H217.866C218.067 7.10131 218.612 5.88022 219.445 4.86358C220.31 3.83991 221.419 3.05115 222.671 2.57038C224.106 1.99965 225.637 1.71432 227.181 1.73038C228.894 1.71984 230.586 2.08995 232.137 2.81398ZM232.843 9.96238C232.884 9.30115 232.772 8.63948 232.517 8.02797C232.262 7.41648 231.871 6.87138 231.373 6.43438C230.123 5.62238 228.664 5.19021 227.173 5.19021C225.682 5.19021 224.223 5.62238 222.973 6.43438C222.472 6.86762 222.076 7.41021 221.817 8.02037C221.558 8.63054 221.441 9.29205 221.478 9.95398V10.2396C221.439 10.8965 221.552 11.5536 221.808 12.1598C222.064 12.7659 222.458 13.3046 222.956 13.734C224.173 14.6157 225.657 15.0491 227.156 14.9604C228.656 15.0578 230.141 14.6269 231.356 13.7424C231.848 13.3064 232.233 12.7645 232.482 12.1576C232.732 11.5507 232.842 10.8948 232.801 10.2396L232.843 9.96238Z" fill="#2D2550"></path><path d="M250.802 2.10841V5.39281H241.444V18.0516H237.799V2.09161L250.802 2.10841Z" fill="#2D2550"></path><path d="M209.022 2.83923C209.322 3.10644 209.558 3.43593 209.717 3.80453C209.875 4.17313 209.95 4.57191 209.938 4.97283V5.13243C209.953 5.53542 209.88 5.93687 209.724 6.30843C209.567 6.68 209.33 7.01263 209.031 7.28283C208.332 7.80045 207.485 8.07987 206.616 8.07987C205.746 8.07987 204.899 7.80045 204.201 7.28283C203.9 7.01373 203.663 6.6813 203.506 6.30946C203.349 5.93762 203.277 5.53564 203.293 5.13243V4.97283C203.277 4.56961 203.349 4.16763 203.506 3.79579C203.663 3.42395 203.9 3.09152 204.201 2.82243C204.874 2.24931 205.736 1.94954 206.62 1.98243C207.5 1.95429 208.359 2.2604 209.022 2.83923ZM209.232 4.96443C209.243 4.65151 209.187 4.33979 209.07 4.05009C208.951 3.76037 208.772 3.49934 208.543 3.28443C207.999 2.84413 207.31 2.62249 206.611 2.66283C205.91 2.62361 205.218 2.84499 204.671 3.28443C204.44 3.49714 204.257 3.75737 204.135 4.04733C204.013 4.33728 203.956 4.65011 203.965 4.96443V5.16603C203.953 5.4807 204.009 5.79442 204.131 6.0848C204.252 6.37518 204.437 6.6351 204.671 6.84603C205.234 7.25075 205.91 7.46847 206.603 7.46847C207.296 7.46847 207.972 7.25075 208.535 6.84603C208.766 6.63324 208.948 6.3728 209.068 6.08272C209.189 5.79262 209.245 5.47985 209.232 5.16603V4.96443ZM207.183 3.57003C207.88 3.57003 208.283 3.90603 208.283 4.46043V4.56963C208.283 4.79903 208.198 5.02015 208.041 5.18848C207.885 5.3568 207.671 5.45983 207.443 5.47683L208.283 6.45123V6.50163H207.561L206.679 5.48523H205.839V6.50163H205.158V3.57003H207.183ZM207.577 4.46043C207.577 4.19163 207.384 4.05723 207.006 4.05723H205.805V4.98963H207.006C207.384 4.98963 207.577 4.84683 207.577 4.55283V4.46043Z" fill="#2D2550"></path><path d="M37.1317 2.10841V5.31721H26.6065V8.47561H36.6865V11.6592H26.6065V14.8428H37.1317V18.0516H22.9609V2.09161L37.1317 2.10841Z" fill="#2D2550"></path><path d="M54.0493 11.2728C54.4465 11.8784 54.6513 12.5899 54.6373 13.314V13.5828C54.6575 14.2171 54.5217 14.8467 54.242 15.4164C53.9623 15.986 53.5472 16.4784 53.0329 16.8504C51.7438 17.7167 50.2072 18.1384 48.6565 18.0516H38.7109V2.09158H48.2197C49.7527 1.99986 51.2764 2.38736 52.5793 3.20038C53.0789 3.54341 53.4828 4.00792 53.7532 4.55019C54.0236 5.09246 54.1515 5.69462 54.1249 6.29998V6.56038C54.1459 7.21906 53.9932 7.87165 53.6821 8.45261C53.3709 9.03355 52.9124 9.52238 52.3525 9.86998C53.0412 10.1648 53.6303 10.6518 54.0493 11.2728ZM42.3565 5.29198V8.50078H48.2365C49.7401 8.50078 50.4961 8.00518 50.4961 7.01398V6.77038C50.5055 6.55302 50.4578 6.337 50.3575 6.1439C50.2573 5.9508 50.1081 5.78739 49.9249 5.66998C49.4128 5.3852 48.8296 5.25396 48.2449 5.29198H42.3565ZM50.9161 13.0452C50.9161 12.0372 50.1517 11.5416 48.6313 11.5416H42.3565V14.9016H48.6565C49.2452 14.9376 49.8311 14.7941 50.3365 14.49C50.5274 14.3624 50.6823 14.1883 50.7868 13.9838C50.8912 13.7795 50.9415 13.5517 50.9329 13.3224L50.9161 13.0452Z" fill="#2D2550"></path><path d="M70.1435 2.10841V5.31721H59.6183V8.47561H69.6983V11.6592H59.6183V14.8428H70.1435V18.0516H55.9727V2.09161L70.1435 2.10841Z" fill="#2D2550"></path><path d="M89.0864 18.0516H85.4408V5.39283H78.536L78.41 11.4408C78.3596 13.6752 77.8976 15.3384 76.9988 16.422C76.4981 16.9864 75.8735 17.4271 75.1739 17.7099C74.4745 17.9925 73.7191 18.1096 72.9668 18.0516H71.6816V14.7756H72.2864C72.6804 14.8116 73.0774 14.7543 73.4451 14.6083C73.8129 14.4624 74.1412 14.232 74.4032 13.9356C74.8872 13.0776 75.1065 12.0956 75.0332 11.1132L75.176 2.07483H89.0864V18.0516Z" fill="#2D2550"></path><path d="M95.3265 17.346C93.9682 16.7419 92.8152 15.7553 92.0085 14.5068C91.2029 13.2162 90.7913 11.7186 90.8241 10.1976V9.9792C90.7924 8.46096 91.204 6.96642 92.0085 5.6784C92.8269 4.41994 93.9945 3.42746 95.3685 2.8224C96.9523 2.15728 98.6529 1.8147 100.371 1.8147C102.088 1.8147 103.789 2.15728 105.373 2.8224C106.728 3.43329 107.875 4.42577 108.674 5.6784C109.469 6.96978 109.874 8.46312 109.842 9.9792V10.1976C109.876 11.7165 109.47 13.2128 108.674 14.5068C107.876 15.7564 106.728 16.7439 105.373 17.346C103.786 18.0058 102.085 18.3456 100.366 18.3456C98.6481 18.3456 96.9467 18.0058 95.3601 17.346H95.3265ZM104.617 13.7508C105.117 13.3205 105.51 12.7804 105.767 12.1728C106.023 11.5651 106.136 10.9063 106.095 10.248V9.9624C106.133 9.29908 106.018 8.63593 105.759 8.0242C105.499 7.41247 105.103 6.86853 104.6 6.4344C103.32 5.62239 101.836 5.19122 100.32 5.19122C98.8046 5.19122 97.3202 5.62239 96.0405 6.4344C95.5361 6.8673 95.1386 7.41103 94.8792 8.02307C94.6198 8.63511 94.5055 9.29886 94.5453 9.9624V10.248C94.5009 10.9084 94.6132 11.5699 94.873 12.1786C95.1329 12.7874 95.5328 13.3261 96.0405 13.7508C97.2908 14.6338 98.8051 15.0636 100.333 14.9688C101.859 15.072 103.373 14.6413 104.617 13.7508Z" fill="#2D2550"></path><path d="M127.189 2.10841V18.0684H123.543V5.39281H115.202V18.0516H111.557V2.09161L127.189 2.10841Z" fill="#2D2550"></path><path d="M150.373 18.0516H146.752V7.06441L141.603 18.0516H137.932L132.775 7.01401V18.0516H129.154V2.09161H134.194L139.789 13.9272L145.349 2.09161H150.389L150.373 18.0516Z" fill="#2D2550"></path><path d="M166.517 2.10841V5.31721H155.991V8.47561H166.029V11.6592H155.991V14.8428H166.517V18.0516H152.346V2.09161L166.517 2.10841Z" fill="#2D2550"></path><path d="M171.743 2.10841V8.45041H180.538V2.10841H184.183V18.0684H180.538V11.7096H171.718V18.0516H168.072V2.09161L171.743 2.10841Z" fill="#2D2550"></path><path d="M185.686 5.3928V2.1084H201.805V5.3928H195.581V18.0516H191.91V5.3928H185.686Z" fill="#2D2550"></path><path d="M21.1977 17.9928V14.7756H18.7449V2.1084H4.74206L4.59926 9.5676C4.62614 11.3949 4.15577 13.195 3.23846 14.7756H1.19727V17.9928H21.1977ZM7.97606 9.6432L8.07686 5.3928H15.0993V14.7756H6.80846C7.58577 13.1769 7.98526 11.4209 7.97606 9.6432Z" fill="#2D2550"></path></svg> 