<?xml version="1.0" encoding="UTF-8"?> <svg xmlns="http://www.w3.org/2000/svg" width="193" height="35" viewBox="0 0 193 35" fill="none"><path fill-rule="evenodd" clip-rule="evenodd" d="M67.5873 5.17151C71.1478 8.61147 72.9397 12.721 72.9397 17.5C72.9397 22.3022 71.1478 26.4115 67.5873 29.8515C64.0266 33.2915 59.685 35 54.5854 35C49.4856 35 45.144 33.2915 41.5833 29.8515C38.0228 26.4115 36.2539 22.3022 36.2539 17.5C36.2539 12.721 38.0228 8.61147 41.5833 5.17151C45.144 1.73153 49.4856 0 54.5854 0C59.685 0 64.0266 1.73153 67.5873 5.17151ZM48.0613 10.7586C46.2925 12.5594 45.4197 14.7988 45.4197 17.5C45.4197 20.2242 46.2925 22.4637 48.0613 24.2645C49.8072 26.0654 51.9895 26.9658 54.6082 26.9658C57.2041 26.9658 59.3864 26.0654 61.1323 24.2645C62.8781 22.4637 63.751 20.2242 63.751 17.5C63.751 14.7988 62.8781 12.5594 61.1323 10.7586C59.3864 8.95778 57.2041 8.05738 54.6082 8.05738C51.9895 8.05738 49.8072 8.95778 48.0613 10.7586Z" fill="#121212"></path><path d="M100.207 34.3074C98.5531 34.7692 96.8301 35 95.0843 35C89.9616 35 85.6199 33.2915 82.0593 29.8515C78.4988 26.4115 76.707 22.3022 76.707 17.5C76.707 12.721 78.4988 8.61147 82.0593 5.17151C85.6199 1.73153 89.9616 0 95.0613 0C96.8301 0 98.5071 0.230871 100.092 0.692612C101.7 1.15435 103.009 1.70844 104.043 2.35489C105.077 3.00132 105.973 3.64775 106.754 4.2942C107.535 4.94064 108.086 5.49472 108.408 5.95646L108.936 6.62599L103.515 12.3054C103.487 12.2708 103.458 12.2321 103.425 12.1899C103.35 12.0913 103.259 11.9724 103.147 11.8437C103.009 11.659 102.642 11.3127 102.091 10.8278C101.539 10.343 100.965 9.90435 100.368 9.53496C99.7705 9.16557 98.9894 8.81927 98.0246 8.51912C97.0598 8.219 96.0721 8.08047 95.0613 8.08047C92.3735 8.08047 90.1225 8.95778 88.3305 10.7586C86.5388 12.5594 85.6429 14.7988 85.6429 17.5231C85.6429 20.2242 86.5388 22.4868 88.3305 24.2875C90.1225 26.0885 92.3735 26.9888 95.0613 26.9888C96.2099 26.9888 97.2436 26.8041 98.1625 26.4577C99.1043 26.1114 99.7705 25.7421 100.161 25.3727L100.712 24.8647V21.3094H95.5436V15.63H109.671V28.3971C109.533 28.5819 109.327 28.8127 109.051 29.1128C108.752 29.413 108.155 29.9439 107.236 30.7058C106.317 31.4676 105.33 32.1372 104.273 32.7374C103.216 33.3146 101.861 33.8457 100.207 34.3074Z" fill="#121212"></path><path d="M134.803 26.0191L143.992 14.4294V34.0534H152.927V0.946533H144.933L134.803 13.9676L124.695 0.946533H116.701V34.0534H125.637V14.4294L134.803 26.0191Z" fill="#121212"></path><path fill-rule="evenodd" clip-rule="evenodd" d="M181.849 34.0534L179.482 26.9657H168.663L166.32 34.0534H156.672L169.145 0.946533H179.024L191.497 34.0534H181.849ZM174.084 10.1814L171.029 19.8779H177.14L174.084 10.1814Z" fill="#121212"></path><path d="M0 10.2585V1.20679H11.3701V34.3137H2.39371V10.2585H0Z" fill="#121212"></path><path d="M13.7637 34.3137H15.0969C20.1047 34.3137 24.2396 32.7207 27.5475 29.5346C30.8555 26.3486 32.5093 22.4239 32.5093 17.7603C32.5093 13.0966 30.8555 9.17183 27.5705 5.98584C24.2626 2.79979 20.1047 1.20679 15.0969 1.20679H13.7637V9.26416H15.0969C17.5778 9.26416 19.5994 10.0722 21.1845 11.6421C22.7465 13.2352 23.5505 15.2668 23.5505 17.7603C23.5505 20.2075 22.7006 22.2391 21.0465 23.8552C19.3695 25.4713 17.3941 26.2793 15.0969 26.2793H13.7637V34.3137Z" fill="#121212"></path></svg> 