<?xml version="1.0" encoding="UTF-8"?> <svg xmlns="http://www.w3.org/2000/svg" width="177" height="89" viewBox="0 0 177 89" fill="none"><g clip-path="url(#clip0_2297_715)"><path d="M26.7369 86.2999H28.6607V87.7342C28.4606 87.919 28.1891 88.066 27.8535 88.1725C27.4888 88.2898 27.1308 88.3497 26.7897 88.3497C26.0024 88.3497 25.3557 88.1017 24.8676 87.6135C24.3847 87.1182 24.1399 86.4574 24.1399 85.6487C24.1399 84.8593 24.3847 84.2039 24.8681 83.7024C25.3502 83.202 25.9872 82.9485 26.7614 82.9485C27.477 82.9485 28.0439 83.1157 28.4458 83.4459L28.5184 83.5054L28.8384 82.9741L28.781 82.9309C28.2436 82.5232 27.5454 82.3167 26.7053 82.3167C25.7356 82.3167 24.9394 82.6393 24.3383 83.2745C23.738 83.8972 23.4336 84.6963 23.4336 85.6487C23.4336 86.6506 23.7418 87.4652 24.3488 88.0698C24.9559 88.6745 25.7711 88.9808 26.7711 88.9808C27.2224 88.9808 27.6826 88.9032 28.1393 88.7503C28.605 88.5902 28.9904 88.3677 29.2851 88.0895L29.3104 88.0656V85.6684H26.7369V86.2999Z" fill="#1D1D1B"></path><path d="M35.9976 84.2909C35.9976 84.6789 35.8393 84.9869 35.5122 85.2333C35.1968 85.4805 34.8224 85.6058 34.3985 85.6058H33.344V83.0288C33.8476 83.0175 34.1647 83.0121 34.2955 83.0121C35.4408 83.0121 35.9976 83.4303 35.9976 84.2909ZM36.2425 85.4939C36.5481 85.1487 36.7035 84.7439 36.7035 84.2909C36.7035 83.0238 35.9027 82.3806 34.3238 82.3806C34.1292 82.3806 33.8877 82.384 33.5994 82.3903C33.3123 82.3961 33.0278 82.3991 32.7471 82.3991H32.666V88.9002H33.344V86.2373H34.5011L36.6874 88.9002H37.5355L35.2103 86.1061C35.6194 86.0005 35.966 85.7952 36.2425 85.4939Z" fill="#1D1D1B"></path><path d="M43.8383 86.1127H41.3552L42.601 83.3116L43.8383 86.1127ZM42.3519 82.3445L39.418 88.8996H40.12L41.0775 86.7442H44.1254L45.0824 88.8996H45.8132L42.8792 82.3445H42.3519Z" fill="#1D1D1B"></path><path d="M53.6306 87.7249L49.2791 82.428L49.2546 82.3987H48.7227V88.8998H49.3723V83.5912L53.7239 88.87L53.748 88.8998H54.2803V82.3987H53.6306V87.7249Z" fill="#1D1D1B"></path><path d="M59.7828 88.287C59.7756 88.287 59.7325 88.2857 59.654 88.2824C59.5721 88.2794 59.4404 88.2769 59.2585 88.2736C59.1002 88.271 58.933 88.2694 58.7561 88.269V83.0299C58.8591 83.0283 59.0132 83.0241 59.2179 83.0174C59.4826 83.0077 59.6831 83.0035 59.8199 83.0035C60.8327 83.0035 61.6099 83.2432 62.1304 83.7159C62.642 84.1873 62.9016 84.807 62.9016 85.5591C62.9016 86.3599 62.6294 87.0228 62.0924 87.5294C61.5537 88.0322 60.7765 88.287 59.7828 88.287ZM62.7307 83.3337C62.4352 83.0333 62.035 82.7953 61.5406 82.6256C61.0492 82.4576 60.4768 82.3721 59.8389 82.3721C59.7511 82.3721 59.475 82.3779 59.0111 82.3905C58.7802 82.396 58.5307 82.3993 58.2622 82.3993H58.0781V88.9004H58.2436C58.5366 88.9004 58.7958 88.9034 59.0204 88.9092C59.2462 88.9155 59.494 88.9184 59.7638 88.9184C60.9808 88.9184 61.9345 88.6 62.5973 87.9723C63.2676 87.3438 63.6079 86.5317 63.6079 85.5591C63.6079 85.1288 63.5349 84.7215 63.3909 84.3486C63.2474 83.9748 63.0253 83.6337 62.7307 83.3337Z" fill="#1D1D1B"></path><path d="M74.2848 84.2909C74.2848 84.6789 74.1264 84.9869 73.7993 85.2333C73.4839 85.4805 73.1095 85.6058 72.6856 85.6058H71.6311V83.0288C72.1347 83.0175 72.4518 83.0121 72.5826 83.0121C73.7279 83.0121 74.2848 83.4303 74.2848 84.2909ZM74.5296 85.4939C74.8352 85.1487 74.9906 84.7439 74.9906 84.2909C74.9906 83.0238 74.1898 82.3806 72.6109 82.3806C72.4163 82.3806 72.1748 82.384 71.8865 82.3903C71.5994 82.3961 71.3149 82.3991 71.0342 82.3991H70.9531V88.9002H71.6311V86.2373H72.7882L74.9746 88.9002H75.8227L73.4974 86.1061C73.9065 86.0005 74.2531 85.7952 74.5296 85.4939Z" fill="#1D1D1B"></path><path d="M79.4295 85.9193H82.2634V85.2878H79.4295V83.0297H82.545V82.3987H78.752V88.8994H82.6391V88.2679H79.4295V85.9193Z" fill="#1D1D1B"></path><path d="M88.8331 85.7311C88.5803 85.6091 88.3042 85.488 88.0116 85.3707C87.717 85.2526 87.4447 85.1461 87.1944 85.0485C86.9584 84.958 86.7574 84.8176 86.5979 84.6324C86.4404 84.4489 86.3636 84.2364 86.3636 83.9821C86.3636 83.6666 86.4767 83.4219 86.7093 83.2337C86.9436 83.0443 87.2708 82.9484 87.6811 82.9484C88.2573 82.9484 88.731 83.1235 89.089 83.4692L89.1548 83.5329L89.5318 83.0343L89.4854 82.9852C89.0645 82.5419 88.4515 82.3169 87.6625 82.3169C87.0572 82.3169 86.5653 82.4757 86.2023 82.7891C85.8409 83.0996 85.6581 83.501 85.6581 83.9821C85.6581 84.3236 85.7481 84.6236 85.9258 84.8754C86.1018 85.1239 86.3239 85.3142 86.5856 85.4403C86.8364 85.5614 87.112 85.6854 87.4059 85.809C87.6997 85.9326 87.972 86.0462 88.2227 86.1488C88.4595 86.2461 88.6609 86.391 88.8205 86.5792C88.9763 86.7631 89.0548 86.986 89.0548 87.2429C89.0548 87.5924 88.9163 87.8551 88.6297 88.0466C88.3388 88.2477 87.9846 88.3495 87.5781 88.3495C87.2725 88.3495 86.9647 88.2791 86.6646 88.1396C86.3644 88.0009 86.1217 87.817 85.9427 87.592L85.8831 87.5174L85.4707 87.9754L85.4998 88.0256C85.6636 88.311 85.9507 88.5482 86.3551 88.7304C86.7574 88.8968 87.172 88.981 87.5874 88.981C88.1974 88.981 88.7162 88.8197 89.1291 88.5021C89.5483 88.1798 89.7606 87.7533 89.7606 87.2341C89.7606 86.875 89.6707 86.5624 89.493 86.3056C89.3174 86.0508 89.0953 85.8576 88.8331 85.7311Z" fill="#1D1D1B"></path><path d="M95.8649 88.3503C95.1148 88.3503 94.4744 88.0901 93.9614 87.5776C93.4536 87.058 93.1961 86.4094 93.1961 85.6497C93.1961 84.8783 93.4536 84.2296 93.9614 83.7222C94.4684 83.2093 95.1088 82.9491 95.8649 82.9491C96.6147 82.9491 97.2521 83.2093 97.76 83.7234C98.2737 84.2246 98.5338 84.8728 98.5338 85.6497C98.5338 86.4098 98.2792 87.0584 97.7773 87.5776C97.2825 88.0905 96.6392 88.3503 95.8649 88.3503ZM95.8649 82.3176C94.9028 82.3176 94.091 82.6394 93.4523 83.2743C92.814 83.9091 92.4902 84.7086 92.4902 85.6497C92.4902 86.6155 92.814 87.4209 93.4532 88.044C94.0974 88.6662 94.9087 88.9817 95.8649 88.9817C96.8211 88.9817 97.6295 88.6629 98.2678 88.0339C98.9124 87.3936 99.2396 86.5916 99.2396 85.6497C99.2396 84.6897 98.9124 83.8873 98.2678 83.2646C97.6291 82.6361 96.8207 82.3176 95.8649 82.3176Z" fill="#1D1D1B"></path><path d="M105.836 84.2909C105.836 84.6789 105.677 84.9869 105.35 85.2333C105.035 85.4805 104.66 85.6058 104.236 85.6058H103.182V83.0288C103.686 83.0175 104.003 83.0121 104.133 83.0121C105.279 83.0121 105.836 83.4303 105.836 84.2909ZM106.08 85.4939C106.386 85.1487 106.541 84.7439 106.541 84.2909C106.541 83.0238 105.741 82.3806 104.162 82.3806C103.967 82.3806 103.726 82.384 103.437 82.3903C103.15 82.3961 102.866 82.3991 102.585 82.3991H102.504V88.9002H103.182V86.2373H104.339L106.525 88.9002H107.373L105.048 86.1061C105.457 86.0005 105.804 85.7952 106.08 85.4939Z" fill="#1D1D1B"></path><path d="M108.912 83.0299H111.342V88.8995H112.02V83.0299H114.451V82.3984H108.912V83.0299Z" fill="#1D1D1B"></path><path d="M123.082 85.2238L124.892 87.4815C124.47 88.0577 123.904 88.3493 123.211 88.3493C122.826 88.3493 122.483 88.2219 122.195 87.9718C121.916 87.7199 121.78 87.4044 121.78 87.0076C121.78 86.6891 121.893 86.3841 122.115 86.1008C122.333 85.823 122.659 85.528 123.082 85.2238ZM123.192 82.8664C123.416 82.8664 123.605 82.9422 123.769 83.0981C123.933 83.2523 124.012 83.4346 124.012 83.6558C124.012 83.8712 123.934 84.051 123.773 84.2052C123.613 84.3606 123.423 84.4361 123.192 84.4361C122.961 84.4361 122.771 84.3606 122.61 84.2048C122.45 84.051 122.371 83.8712 122.371 83.6558C122.371 83.4346 122.45 83.2519 122.61 83.0973C122.771 82.9422 122.961 82.8664 123.192 82.8664ZM126.51 84.7432V84.6627H125.87V84.7432C125.87 85.5859 125.685 86.3422 125.32 86.9933L123.625 84.9108C123.879 84.8593 124.103 84.7264 124.292 84.5169C124.518 84.2789 124.633 83.9894 124.633 83.6558C124.633 83.2712 124.488 82.9494 124.204 82.7009C123.933 82.4457 123.592 82.3167 123.192 82.3167C122.798 82.3167 122.454 82.4453 122.171 82.7001C121.892 82.9498 121.75 83.2716 121.75 83.6558C121.75 83.963 121.844 84.2362 122.031 84.4666C122.18 84.6531 122.371 84.7885 122.599 84.8706C122.138 85.1832 121.773 85.5088 121.514 85.8398C121.222 86.2115 121.074 86.6351 121.074 87.0981C121.074 87.6445 121.279 88.1008 121.684 88.4536C122.085 88.8035 122.596 88.9808 123.201 88.9808C124.077 88.9808 124.782 88.6443 125.297 87.9801L126.053 88.8991H126.871L125.732 87.51C126.248 86.7428 126.51 85.8121 126.51 84.7432Z" fill="#1D1D1B"></path><path d="M137.068 85.7311C136.814 85.6087 136.538 85.4876 136.246 85.3707C135.952 85.2526 135.679 85.1461 135.429 85.0485C135.192 84.9576 134.991 84.8176 134.832 84.6324C134.675 84.4489 134.598 84.2368 134.598 83.9821C134.598 83.6666 134.711 83.4219 134.944 83.2337C135.178 83.0443 135.505 82.9484 135.916 82.9484C136.492 82.9484 136.965 83.1235 137.323 83.4692L137.389 83.5325L137.767 83.0343L137.72 82.9852C137.299 82.5419 136.686 82.3169 135.897 82.3169C135.292 82.3169 134.8 82.4757 134.437 82.7891C134.075 83.0996 133.893 83.501 133.893 83.9821C133.893 84.3236 133.982 84.624 134.161 84.875C134.336 85.1243 134.559 85.3142 134.82 85.4403C135.07 85.561 135.346 85.685 135.64 85.809C135.934 85.9326 136.207 86.0462 136.457 86.1488C136.694 86.2461 136.896 86.391 137.055 86.5792C137.211 86.7631 137.289 86.986 137.289 87.2429C137.289 87.5924 137.151 87.8551 136.864 88.0466C136.573 88.2477 136.219 88.3495 135.812 88.3495C135.507 88.3495 135.199 88.2791 134.899 88.1396C134.599 88.0013 134.356 87.817 134.177 87.5915L134.118 87.5174L133.705 87.9754L133.734 88.0256C133.898 88.311 134.185 88.5482 134.59 88.7304C134.992 88.8968 135.406 88.981 135.822 88.981C136.432 88.981 136.951 88.8197 137.363 88.5021C137.782 88.1798 137.995 87.7529 137.995 87.2341C137.995 86.8754 137.905 86.5628 137.728 86.3056C137.552 86.0512 137.33 85.8576 137.068 85.7311Z" fill="#1D1D1B"></path><path d="M144.655 84.363C144.655 84.795 144.509 85.1273 144.209 85.38C143.91 85.6314 143.478 85.7592 142.924 85.7592C142.676 85.7592 142.343 85.7458 141.936 85.7194V83.0284C142.442 83.0171 142.794 83.0117 142.99 83.0117C143.549 83.0117 143.972 83.1328 144.246 83.3724C144.521 83.6125 144.655 83.936 144.655 84.363ZM144.861 83.0142C144.684 82.8177 144.428 82.6609 144.101 82.5482C143.778 82.4368 143.388 82.3806 142.943 82.3806C142.68 82.3806 142.41 82.3835 142.134 82.3898C141.86 82.3957 141.595 82.3991 141.339 82.3991H141.258V88.8997H141.936V86.3613C142.214 86.3806 142.552 86.3906 142.943 86.3906C143.724 86.3906 144.33 86.1941 144.744 85.8074C145.153 85.4248 145.361 84.9421 145.361 84.3718C145.361 84.1108 145.321 83.8656 145.244 83.644C145.165 83.4202 145.037 83.2082 144.861 83.0142Z" fill="#1D1D1B"></path><path d="M151.557 86.1127H149.074L150.32 83.3116L151.557 86.1127ZM150.619 82.3918L150.598 82.3445H150.071L147.187 88.7869L147.137 88.8996H147.839L148.797 86.7442H151.844L152.801 88.8996H153.532L150.619 82.3918Z" fill="#1D1D1B"></path><path d="M2.51307 47.8955H0V62.7205H10.0367V61.7588H2.51307V47.8955Z" fill="#1D1D1B"></path><path d="M19.522 47.896H17.0098V62.721H19.522V47.896Z" fill="#1D1D1B"></path><path d="M34.6257 59.6903L28.9824 47.8953H26.3359L33.6227 63.0672H34.2766L41.0572 47.8953H39.8638L34.6257 59.6903Z" fill="#1D1D1B"></path><path d="M50.3723 47.896H47.8613V62.721H50.3723V47.896Z" fill="#1D1D1B"></path><path d="M70.4781 58.7399H70.3658L60.5778 47.8953H59.1699V62.7206H60.2958V51.0149H60.3861L70.9957 63.0672H71.5825V47.8953H70.4781V58.7399Z" fill="#1D1D1B"></path><path d="M89.4692 56.0011H92.2972V61.2003C91.8767 61.5275 91.4035 61.7798 90.8779 61.9549C90.3515 62.1292 89.7626 62.2177 89.1095 62.2177C88.2082 62.2177 87.3635 62.0589 86.5741 61.7425C85.7863 61.4249 85.1012 60.9732 84.5195 60.3836C83.9369 59.7957 83.4784 59.0813 83.1454 58.2428C82.811 57.4052 82.6438 56.4637 82.6438 55.4199C82.6438 54.3836 82.7967 53.4467 83.1048 52.6082C83.4138 51.7694 83.8428 51.0537 84.3954 50.462C84.9475 49.8687 85.6031 49.4149 86.3672 49.0977C87.1288 48.7809 87.9604 48.6225 88.8609 48.6225C89.8601 48.6225 90.7441 48.8999 91.5141 49.4555C92.2837 50.0112 92.9832 50.8877 93.6143 52.0878L94.6959 51.3726C94.3877 50.8731 94.02 50.3946 93.5915 49.9362C93.1647 49.4782 92.675 49.073 92.1224 48.7231C91.5707 48.3732 90.9577 48.0912 90.2869 47.8779C89.6136 47.6663 88.8845 47.5603 88.0947 47.5603C87.2689 47.5603 86.4884 47.6567 85.7522 47.8507C85.0163 48.0439 84.3371 48.3166 83.714 48.6669C83.0901 49.0177 82.5315 49.435 82.0355 49.9194C81.5395 50.4038 81.1182 50.938 80.7733 51.5242C80.428 52.1084 80.1637 52.7302 79.9796 53.3914C79.7964 54.0505 79.7031 54.7277 79.7031 55.4199C79.7031 56.1205 79.8019 56.7947 79.9965 57.4433C80.192 58.0924 80.4676 58.6996 80.8248 59.2657C81.1807 59.8322 81.6146 60.3492 82.1263 60.8148C82.6362 61.2803 83.2091 61.6809 83.8428 62.0161C84.4772 62.3513 85.167 62.6107 85.9096 62.793C86.6539 62.9753 87.4382 63.0679 88.2648 63.0679C89.0454 63.0679 89.7432 63.0352 90.3599 62.9723C90.975 62.909 91.5403 62.8173 92.0549 62.6979C92.5691 62.5793 93.0486 62.4293 93.4902 62.2508C93.9339 62.0723 94.3725 61.8678 94.809 61.6365V55.1182H89.4692V56.0011Z" fill="#1D1D1B"></path><path d="M112.121 56.2296C111.724 55.8755 111.27 55.55 110.763 55.2512C110.257 54.9533 109.741 54.6667 109.215 54.3901C108.69 54.1156 108.173 53.8433 107.666 53.5747C107.159 53.3061 106.707 53.0287 106.309 52.7417C105.911 52.4551 105.593 52.1483 105.351 51.8253C105.112 51.5005 104.991 51.1439 104.991 50.7568C104.991 50.4819 105.05 50.2104 105.166 49.9468C105.282 49.682 105.459 49.4436 105.696 49.2307C105.932 49.0191 106.227 48.8469 106.58 48.717C106.933 48.5862 107.346 48.5213 107.819 48.5213C108.352 48.5213 108.831 48.5946 109.254 48.7383C109.679 48.8842 110.052 49.0907 110.376 49.3593C110.698 49.6279 110.977 49.9506 111.21 50.3264C111.441 50.7031 111.633 51.1188 111.784 51.5739L113.068 50.9923C112.887 50.4337 112.651 49.9414 112.358 49.516C112.065 49.0907 111.708 48.7329 111.288 48.4429C110.867 48.1521 110.38 47.9326 109.823 47.7834C109.268 47.6334 108.637 47.5601 107.931 47.5601C107.15 47.5601 106.458 47.6606 105.854 47.8622C105.249 48.0633 104.739 48.3407 104.326 48.6952C103.914 49.0484 103.601 49.4683 103.386 49.9518C103.172 50.4362 103.064 50.9621 103.064 51.5286C103.064 52.0951 103.183 52.5963 103.421 53.0321C103.656 53.4687 103.966 53.8638 104.349 54.217C104.732 54.5715 105.17 54.8929 105.662 55.1787C106.154 55.4666 106.654 55.7398 107.166 56.0012C107.675 56.2623 108.177 56.5221 108.669 56.7836C109.161 57.0446 109.599 57.322 109.981 57.6166C110.365 57.9111 110.673 58.2355 110.911 58.5887C111.148 58.9428 111.265 59.3475 111.265 59.8018C111.265 60.1826 111.179 60.5162 111.006 60.8028C110.833 61.0898 110.604 61.3316 110.319 61.5298C110.033 61.7267 109.711 61.8763 109.351 61.9769C108.99 62.0775 108.626 62.1282 108.258 62.1282C107.769 62.1282 107.31 62.0561 106.878 61.9149C106.446 61.7737 106.054 61.5704 105.701 61.3056C105.348 61.0412 105.038 60.7194 104.772 60.3385C104.505 59.9589 104.293 59.5265 104.136 59.0412L102.795 59.5897C102.99 60.1407 103.241 60.6314 103.55 61.0597C103.857 61.4892 104.227 61.8516 104.659 62.1495C105.091 62.4479 105.588 62.6754 106.151 62.8313C106.715 62.9893 107.358 63.0672 108.078 63.0672C108.964 63.0672 109.741 62.9545 110.41 62.7307C111.078 62.5078 111.637 62.204 112.089 61.8193C112.538 61.4364 112.876 60.9859 113.101 60.4672C113.326 59.9497 113.439 59.3957 113.439 58.8066C113.439 58.2857 113.319 57.8135 113.079 57.3924C112.839 56.9721 112.52 56.5841 112.121 56.2296Z" fill="#1D1D1B"></path><path d="M120.074 48.8574H125.48V62.7207H127.991V48.8574H133.399V47.8958H120.074V48.8574Z" fill="#1D1D1B"></path><path d="M153.104 58.0773C152.875 58.9422 152.535 59.6926 152.086 60.3266C151.635 60.9602 151.08 61.4546 150.423 61.8091C149.767 62.1623 149.01 62.3404 148.153 62.3404C147.282 62.3404 146.518 62.1623 145.863 61.8091C145.204 61.4546 144.652 60.9602 144.206 60.3266C143.759 59.6926 143.423 58.9422 143.198 58.0773C142.973 57.2125 142.859 56.2646 142.859 55.2355C142.859 54.2135 142.973 53.2778 143.198 52.426C143.423 51.5762 143.759 50.8442 144.206 50.2282C144.652 49.6122 145.204 49.1354 145.863 48.7956C146.518 48.4562 147.282 48.2869 148.153 48.2869C149.01 48.2869 149.767 48.4562 150.423 48.7956C151.08 49.1354 151.635 49.6122 152.086 50.2282C152.535 50.8442 152.875 51.5762 153.104 52.426C153.333 53.2778 153.447 54.2135 153.447 55.2355C153.447 56.2646 153.333 57.2125 153.104 58.0773ZM155.29 51.3503C154.934 50.7838 154.507 50.268 154.011 49.8025C153.516 49.3365 152.962 48.9372 152.349 48.6053C151.739 48.2731 151.078 48.0162 150.373 47.8343C149.668 47.6512 148.928 47.5603 148.153 47.5603C147.381 47.5603 146.641 47.6512 145.936 47.8343C145.228 48.0162 144.572 48.2731 143.964 48.6053C143.355 48.9372 142.801 49.3365 142.303 49.8025C141.802 50.268 141.378 50.7838 141.023 51.3503C140.671 51.9169 140.399 52.5278 140.208 53.1831C140.016 53.8393 139.92 54.5211 139.92 55.2288C139.92 56.3107 140.133 57.3256 140.557 58.2763C140.98 59.2267 141.563 60.058 142.303 60.7695C143.043 61.4819 143.913 62.0425 144.915 62.4515C145.918 62.8617 146.997 63.0674 148.153 63.0674C148.928 63.0674 149.668 62.974 150.373 62.7884C151.078 62.6015 151.739 62.3371 152.349 61.9931C152.962 61.6507 153.516 61.2409 154.011 60.7645C154.507 60.2872 154.934 59.758 155.29 59.1768C155.646 58.5952 155.92 57.9713 156.111 57.3042C156.303 56.6371 156.398 55.9453 156.398 55.2288C156.398 54.5211 156.303 53.8393 156.111 53.1831C155.92 52.5278 155.646 51.9169 155.29 51.3503Z" fill="#1D1D1B"></path><path d="M175.818 47.8955V58.7402H175.706L165.918 47.8955H164.51V62.7205H165.636V51.0151H165.726L176.336 63.0674H176.921V47.8955H175.818Z" fill="#1D1D1B"></path><path d="M84.7393 2.92757C83.7392 2.80019 82.7425 2.6133 81.7382 2.55506C76.7657 2.26761 71.9835 3.18317 67.4281 5.09894C62.0752 7.34992 56.778 9.73163 51.4724 12.0916C49.2679 13.0721 47.1048 14.1431 44.9218 15.1718C44.8353 15.2124 44.742 15.238 44.655 15.2694C44.6348 15.2313 44.6225 15.2183 44.6213 15.2045C44.5428 14.1703 44.5428 14.1699 45.4681 13.7077C50.7096 11.0914 55.932 8.43811 61.1984 5.87203C64.5768 4.2257 67.9769 2.6066 71.6053 1.53935C74.8681 0.579794 78.1904 -0.0235955 81.6073 0.000707717C83.1321 0.0116023 84.6426 0.167897 86.0843 0.701311C88.4825 1.58838 89.6075 3.598 89.1381 6.08741C88.8574 7.57577 88.222 8.90574 87.3541 10.1381C87.2156 10.3342 87.0738 10.5278 86.8674 10.8148C87.902 10.2273 88.8173 9.66375 89.7713 9.17392C95.4054 6.28099 101.345 4.53871 107.744 4.51398C111.435 4.49974 114.952 5.35077 118.407 6.5257C122.299 7.84855 125.96 9.61514 129.173 12.1909C130.129 12.9573 130.968 13.864 131.887 14.6782C132.41 15.1416 132.495 15.6868 132.367 16.3052C131.538 15.5259 130.747 14.7021 129.873 13.9755C126.16 10.8865 121.933 8.9049 117.086 8.3166C114.9 8.05136 112.715 8.21561 110.536 8.41214C105.835 8.83577 101.287 9.90511 96.956 11.7693C94.1136 12.9929 91.3257 14.3409 88.5019 15.608C86.3975 16.552 84.2209 17.3235 81.9109 17.5384C80.7132 17.6499 79.4552 17.6482 78.2841 17.4098C76.1303 16.9719 75.1324 15.3352 75.4177 13.1672C75.7132 10.9191 76.8501 9.114 78.3918 7.51878C80.023 5.83055 81.9349 4.51608 84.036 3.4635C84.272 3.34533 84.5075 3.22717 84.7431 3.10901C84.7418 3.04867 84.7405 2.98791 84.7393 2.92757Z" fill="#1D1D1B"></path></g><defs><clipPath id="clip0_2297_715"><rect width="177" height="89" fill="white"></rect></clipPath></defs></svg> 