<?xml version="1.0" encoding="UTF-8"?> <svg xmlns="http://www.w3.org/2000/svg" width="224" height="48" viewBox="0 0 224 48" fill="none"><path fill-rule="evenodd" clip-rule="evenodd" d="M64.7414 20.0144H64.6043C62.739 20.2715 55.6312 20.2715 53.7659 20.0144H53.6289V7.05H53.7659C55.6932 6.78856 62.6772 6.78856 64.6043 7.05H64.7414V20.0144ZM68.2246 4.2C66.2267 1.80429 62.3412 1.5 59.1852 1.5C56.029 1.5 52.1437 1.80429 50.1457 4.2C47.7942 6.58714 47.7942 11.2757 47.7942 13.5257C47.7942 16.9544 48.0726 20.7471 50.1369 22.8429C52.1658 25.2729 56.2721 25.5556 59.1852 25.5556C62.3457 25.5556 66.2267 25.2471 68.2246 22.8514C70.2934 20.7471 70.5717 16.9586 70.5717 13.5257C70.5717 11.2757 70.5717 6.58714 68.2335 4.21285L68.2246 4.2ZM45.0845 2.15583V7.4444H33.026V11.2116H42.7064V15.8401H33.026V19.6116H45.0845V24.8958H27.0675V2.15583H45.0845ZM23.0628 2.16001V24.8958H17.0998V16.0029H7.60505V24.8958H1.64654V2.16001H7.60505V10.7186H17.0998V2.16001H23.0628ZM123.739 7.4444V2.15583H105.722V24.8958H123.739V19.6116H111.685V15.8401H121.361V11.2116H111.685V7.4444H123.739ZM127.058 2.16001H147.962V7.44431H140.487V24.8958H134.529V7.44431H127.058V2.16001ZM166.315 7.44431C163.322 7.27925 160.322 7.27925 157.328 7.44431V13.3543C158.929 13.4872 164.705 13.5086 166.315 13.3543V7.44431ZM172.44 10.4015C172.44 13.2343 171.84 15.3471 170.651 16.6629H170.634C169.466 17.9743 167.539 18.6385 164.887 18.6385H157.328V24.8958H151.37V2.16001H164.905C167.53 2.16001 169.461 2.81145 170.651 4.13145C171.84 5.45145 172.44 7.56859 172.44 10.4015ZM93.1196 2.16001L88.0981 14.0143H87.9744L82.9529 2.16001H74.3952V24.8958H80.3538V11.88L80.2611 8.74287H80.4467L85.0393 19.6285H91.0332L95.6258 8.74287H95.8114L95.7187 11.8886V24.8958H101.677V2.16001H93.1196ZM181.741 16.7614L190.568 2.16001H197.62V24.8958H191.657V13.7015L191.851 10.2943H191.74L182.913 24.8958H175.866V2.16001H181.826V13.3543L181.63 16.7614H181.741ZM216.388 12.7243C214.735 12.8786 208.79 12.8615 207.144 12.7243V7.42287C210.223 7.25785 213.309 7.25785 216.388 7.42287V12.7243ZM208.533 2.16001C206 2.16001 204.144 2.79431 203.008 4.05001C201.871 5.30573 201.314 7.2643 201.296 9.92145V9.9986V10.0672V10.53C201.363 13.02 201.938 14.8757 202.999 16.0543C203.651 16.7472 204.484 17.2554 205.412 17.5244L205.601 17.5844L205.5 17.7514L201.23 24.8958H207.649L211.724 17.9785H216.392V24.8958H222.355V2.16001H208.533ZM119.593 44.4696V37.5198L113.67 44.4696H112.622V35.9941H113.67V42.9318L119.593 35.9941H120.64V44.4696H119.593ZM113.911 33.0279H114.838C114.838 33.4557 114.986 33.8067 115.283 34.0812C115.588 34.3557 116.042 34.4928 116.644 34.4928C117.237 34.4928 117.683 34.3557 117.98 34.0812C118.285 33.7988 118.437 33.4476 118.437 33.0279H119.376C119.376 33.73 119.152 34.287 118.702 34.6987C118.261 35.1103 117.575 35.3162 116.644 35.3162C115.737 35.3162 115.054 35.1103 114.597 34.6987C114.139 34.2789 113.911 33.722 113.911 33.0279ZM2.52951 37.774C1.83926 38.2825 1.49414 39.1059 1.49414 40.2439C1.49414 41.3901 1.83926 42.2256 2.52951 42.7503C3.21975 43.2669 4.32735 43.5252 5.85231 43.5252V44.5544H6.91176V43.5252C8.43671 43.5252 9.54431 43.2669 10.2346 42.7503C10.9248 42.2256 11.2699 41.3901 11.2699 40.2439C11.2699 39.1059 10.9248 38.2825 10.2346 37.774C9.54431 37.2575 8.43671 36.9991 6.91176 36.9991V35.9094H5.85231V36.9991C4.32735 36.9991 3.21975 37.2575 2.52951 37.774ZM6.91176 42.5565V37.9677C8.07554 37.9677 8.91828 38.1493 9.43997 38.5126C9.96167 38.8677 10.2225 39.4449 10.2225 40.2439C10.2225 41.0431 9.95765 41.6242 9.42794 41.9874C8.90624 42.3507 8.06751 42.5405 6.91176 42.5565ZM3.32409 38.5247C3.85382 38.1615 4.69655 37.9758 5.85231 37.9677V42.5565C4.69655 42.5565 3.85382 42.3748 3.32409 42.0117C2.80239 41.6404 2.54155 41.0551 2.54155 40.2561C2.54155 39.465 2.80239 38.888 3.32409 38.5247ZM14.4193 44.4696H21.3057V43.4768H15.4667V40.704H20.7038V39.7596H15.4667V36.987H21.3057V35.9941H14.4193V44.4696ZM23.713 46.5279V43.4768H24.7845C24.9692 43.3717 25.1176 43.2063 25.2299 42.9802C25.3503 42.7543 25.4627 42.2942 25.5671 41.6001C25.6714 40.9059 25.7517 39.9534 25.8078 38.7426L25.9163 35.9941H32.1043V43.4768H33.549V46.5279H32.5016V44.4696H24.7604V46.5279H23.713ZM26.0366 43.4768H31.0569V36.987H26.9155L26.8312 38.791C26.7349 41.1723 26.47 42.7341 26.0366 43.4768ZM36.4904 44.4696H43.3768V43.4768H37.5378V40.704H42.7748V39.7596H37.5378V36.987H43.3768V35.9941H36.4904V44.4696ZM46.6207 44.4696V35.9941H50.7741C51.7694 35.9941 52.4918 36.204 52.9413 36.6238C53.3987 37.0435 53.6275 37.7175 53.6275 38.6457C53.6275 39.5741 53.4027 40.248 52.9534 40.6677C52.5039 41.0874 51.7775 41.2974 50.7741 41.2974H47.6682V44.4696H46.6207ZM50.714 36.987H47.6682V40.3046H50.714C51.3642 40.3046 51.8377 40.1754 52.1346 39.9171C52.4316 39.6507 52.58 39.2269 52.58 38.6457C52.58 38.0646 52.4316 37.6449 52.1346 37.3866C51.8377 37.1202 51.3642 36.987 50.714 36.987ZM59.012 35.9941L55.051 44.4696H56.1707L57.0736 42.5443L62.1662 42.5323L63.0571 44.4696H64.1768L60.228 35.9941H59.012ZM57.5433 41.5395L59.626 37.0718L61.6967 41.5395H57.5433ZM66.3871 44.4696V43.4161H66.8205C67.0692 43.4161 67.2619 43.3193 67.3984 43.1256C67.5349 42.9318 67.6593 42.4879 67.7716 41.7937C67.884 41.0914 67.9723 40.0623 68.0365 38.7063L68.1568 35.9941H74.333V44.4696H73.2855V36.987H69.1441L69.0718 38.8032C68.9995 40.3368 68.8832 41.5113 68.7227 42.3265C68.5621 43.1337 68.3414 43.6947 68.0605 44.0094C67.7877 44.3162 67.4024 44.4696 66.9048 44.4696H66.3871ZM77.8463 44.4696H81.9997C82.995 44.4696 83.7174 44.2636 84.1669 43.8521C84.6243 43.4404 84.8531 42.7826 84.8531 41.8785C84.8531 40.9664 84.6283 40.3086 84.1788 39.9049C83.7295 39.4934 83.0031 39.2874 81.9997 39.2874H78.8938V35.9941H77.8463V44.4696ZM81.9396 43.4768H78.8938V40.2803H81.9396C82.5898 40.2803 83.0633 40.4053 83.3602 40.6557C83.6572 40.9059 83.8056 41.3134 83.8056 41.8785C83.8056 42.4355 83.6572 42.8432 83.3602 43.1013C83.0633 43.3517 82.5898 43.4768 81.9396 43.4768ZM87.8826 44.4696V35.9941H88.9299V39.7355H94.9495V35.9941H95.9969V44.4696H94.9495V40.7283H88.9299V44.4696H87.8826ZM99.5177 44.4696H103.671C104.666 44.4696 105.389 44.2636 105.838 43.8521C106.296 43.4404 106.524 42.7826 106.524 41.8785C106.524 40.9664 106.3 40.3086 105.85 39.9049C105.401 39.4934 104.674 39.2874 103.671 39.2874H100.565V35.9941H99.5177V44.4696ZM103.611 43.4768H100.565V40.2803H103.611C104.261 40.2803 104.735 40.4053 105.032 40.6557C105.329 40.9059 105.477 41.3134 105.477 41.8785C105.477 42.4355 105.329 42.8432 105.032 43.1013C104.735 43.3517 104.261 43.4768 103.611 43.4768ZM108.065 35.9941V44.4696H109.113V35.9941H108.065ZM128.237 43.4768V46.5279H129.285V44.4696H137.026V46.5279H138.073V43.4768H136.629V35.9941H130.44L130.332 38.7426C130.276 39.9534 130.196 40.9059 130.091 41.6001C129.987 42.2942 129.875 42.7543 129.754 42.9802C129.642 43.2063 129.493 43.3717 129.309 43.4768H128.237ZM135.581 43.4768H130.561C130.994 42.7341 131.259 41.1723 131.355 38.791L131.44 36.987H135.581V43.4768ZM147.901 44.4696H141.015V35.9941H147.901V36.987H142.062V39.7596H147.299V40.704H142.062V43.4768H147.901V44.4696ZM151.146 35.9941V44.4696H156.021C156.935 44.4696 157.598 44.2879 158.007 43.9247C158.424 43.5615 158.633 42.9803 158.633 42.1812C158.633 41.0673 158.208 40.369 157.358 40.0866C158.007 39.7799 158.333 39.1463 158.333 38.1856C158.333 37.4188 158.124 36.8619 157.706 36.5148C157.297 36.1677 156.635 35.9941 155.72 35.9941H151.146ZM152.192 40.6073H156.021C156.583 40.6073 156.992 40.7202 157.249 40.9463C157.513 41.1723 157.646 41.5354 157.646 42.0359C157.646 42.5364 157.518 42.9036 157.261 43.1377C157.004 43.3636 156.59 43.4768 156.021 43.4768H152.192V40.6073ZM155.696 39.6749H152.192V36.987H155.72C156.281 36.987 156.69 37.0961 156.947 37.314C157.213 37.5238 157.344 37.8629 157.344 38.331C157.344 38.8073 157.22 39.1503 156.973 39.3602C156.723 39.57 156.298 39.6749 155.696 39.6749ZM168.609 44.4696H161.721V35.9941H168.609V36.987H162.77V39.7596H168.007V40.704H162.77V43.4768H168.609V44.4696ZM171.076 43.4161V44.4696H171.594C172.091 44.4696 172.476 44.3162 172.75 44.0094C173.03 43.6947 173.251 43.1337 173.411 42.3265C173.572 41.5113 173.689 40.3368 173.761 38.8032L173.832 36.987H177.975V44.4696H179.022V35.9941H172.845L172.726 38.7063C172.661 40.0623 172.573 41.0914 172.46 41.7937C172.348 42.4879 172.224 42.9318 172.087 43.1256C171.951 43.3193 171.758 43.4161 171.509 43.4161H171.076ZM183.185 36.9385C183.867 36.2524 184.964 35.9094 186.472 35.9094C187.98 35.9094 189.076 36.2524 189.759 36.9385C190.441 37.6246 190.782 38.7225 190.782 40.2318C190.782 41.7412 190.441 42.8391 189.759 43.5252C189.076 44.2113 187.98 44.5544 186.472 44.5544C184.964 44.5544 183.867 44.2153 183.185 43.5372C182.512 42.8511 182.174 41.7493 182.174 40.2318C182.174 38.7144 182.512 37.6166 183.185 36.9385ZM183.991 37.7015C183.478 38.226 183.221 39.0696 183.221 40.2318C183.221 41.3941 183.478 42.2418 183.991 42.7745C184.505 43.2991 185.332 43.5615 186.472 43.5615C187.611 43.5615 188.439 43.2991 188.952 42.7745C189.473 42.2418 189.735 41.3941 189.735 40.2318C189.735 39.0696 189.473 38.226 188.952 37.7015C188.439 37.1687 187.611 36.9022 186.472 36.9022C185.332 36.9022 184.505 37.1687 183.991 37.7015ZM193.924 35.9941V44.4696H194.97V36.987H200.809V44.4696H201.858V35.9941H193.924ZM212.257 44.4696H205.37V35.9941H212.257V36.987H206.418V39.7596H211.655V40.704H206.418V43.4768H212.257V44.4696ZM215.501 35.9941V44.4696H216.548V41.2974H219.654C220.657 41.2974 221.384 41.0874 221.834 40.6677C222.283 40.248 222.507 39.5741 222.507 38.6457C222.507 37.7175 222.279 37.0435 221.821 36.6238C221.371 36.204 220.65 35.9941 219.654 35.9941H215.501ZM216.548 36.987H219.594C220.244 36.987 220.717 37.1202 221.014 37.3866C221.311 37.6449 221.461 38.0646 221.461 38.6457C221.461 39.2269 221.311 39.6507 221.014 39.9171C220.717 40.1754 220.244 40.3046 219.594 40.3046H216.548V36.987Z" fill="#0F1111"></path></svg> 