<?xml version="1.0" encoding="UTF-8"?> <svg xmlns="http://www.w3.org/2000/svg" width="227" height="40" viewBox="0 0 227 40" fill="none"><g clip-path="url(#clip0_2056_1113)"><path d="M198.146 1.46035C194.06 1.46035 190.746 4.78027 190.746 8.87543C190.746 12.9706 194.06 16.2903 198.146 16.2903H212.139V37.7239H226.94V1.46035H198.146ZM59.3516 15.9967H74.0109C72.8609 12.7435 70.1059 10.5932 66.7335 10.5932C63.1787 10.5932 60.5376 12.8328 59.3516 15.9967ZM87.8924 21.2637V21.264H58.7282C59.2104 25.9743 62.2627 29.2721 66.7335 29.2721C70.0709 29.2721 72.6227 27.342 73.8594 24.6115H87.8924C86.4067 32.374 78.4393 39.8651 66.8532 39.8651C53.896 39.8651 45.421 31.4767 45.421 19.9328C45.421 9.10123 53.8306 0.000305176 66.8532 0.000305176C80.7514 0.000305176 88.1312 10.606 87.8924 21.2637ZM21.3096 29.2721C16.4282 29.2721 13.2355 25.3418 13.2355 19.9328C13.2355 14.8575 16.4036 10.5932 21.3096 10.5932C24.788 10.5932 27.6153 12.8776 28.6969 16.3037H42.1333C40.8138 6.75359 32.3093 0.000305176 21.4323 0.000305176C8.40945 0.000305176 0 9.10123 0 19.9328C0 31.4767 8.47487 39.8651 21.4323 39.8651C33.4808 39.8651 41.6817 32.249 42.4713 23.0716H28.9711C28.0903 26.5883 25.2457 29.2721 21.3096 29.2721ZM173.879 24.6849C173.879 22.4077 172.038 20.5617 169.765 20.5617H161.01V28.808H169.765C172.038 28.808 173.879 26.962 173.879 24.6849ZM186.296 24.8823C186.296 31.9745 180.557 37.7239 173.479 37.7239H148.21V1.46035H161.01V12.0408H173.479C180.557 12.0408 186.296 17.79 186.296 24.8823ZM128.795 1.46035L117.117 18.237L105.443 1.46035H92.644V37.7239H105.443V17.8107L115.221 31.9084H119.357L128.795 18.0782V37.7239H141.593V1.46035H128.795ZM190.746 21.335H206.898V37.7239H190.746V21.335Z" fill="#FF4723"></path></g><defs><clipPath id="clip0_2056_1113"><rect width="227" height="40" fill="white"></rect></clipPath></defs></svg> 